<svg width="36" height="36" viewBox="0 0 36 36" fill="none" xmlns="http://www.w3.org/2000/svg">
<rect y="0.00244141" width="35.9977" height="35.9977" rx="5" fill="white"/>
<path d="M7 9C7 7.89543 7.89543 7 9 7H27C28.1046 7 29 7.89543 29 9V27C29 28.1046 28.1046 29 27 29H9C7.89543 29 7 28.1046 7 27V9Z" fill="#15008F"/>
<path d="M13.301 13.9129C13.5923 14.4653 14.0311 14.9271 14.5691 15.2475C14.6842 15.3194 14.7691 15.4305 14.808 15.56C14.8469 15.6895 14.8371 15.8286 14.7805 15.9515C14.6429 16.2986 14.3725 16.8022 14.5052 17.0124C14.6838 17.1401 14.8941 17.2167 15.1133 17.2339C15.3325 17.2512 15.5523 17.2084 15.7488 17.1102C15.8307 17.2879 15.9227 17.4609 16.0241 17.6284C15.9784 17.6796 15.9172 17.7145 15.8497 17.7277C15.7822 17.7409 15.7123 17.7318 15.6505 17.7017C15.7132 17.7563 15.752 17.8331 15.7587 17.9157C15.7654 17.9983 15.7393 18.0802 15.6861 18.1439C15.6329 18.2077 15.5567 18.2483 15.4738 18.257C15.391 18.2657 15.308 18.2419 15.2425 18.1906C15.1966 18.1554 15.1625 18.107 15.145 18.0519C15.1274 17.9969 15.1271 17.9378 15.1442 17.8826C15.0547 18.0212 14.9242 18.1288 14.7707 18.1906C14.6886 18.1293 14.6279 18.0441 14.5971 17.9468C14.5662 17.8494 14.5668 17.745 14.5986 17.648C14.5306 17.7675 14.4357 17.8697 14.3215 17.9468C14.2073 18.024 14.0767 18.0739 13.94 18.0929C13.8562 17.969 13.8178 17.8203 13.8312 17.6716C13.8446 17.523 13.9091 17.3834 14.0137 17.2764C13.9115 17.3523 13.7915 17.4011 13.6652 17.4182C13.5388 17.4353 13.4101 17.4202 13.2912 17.3742C13.2912 17.3742 13.2174 17.1395 13.6402 16.7924C13.5012 16.7875 13.3656 16.7477 13.2462 16.6768C13.1267 16.6059 13.0272 16.506 12.9569 16.3866C13.0564 16.3042 13.1719 16.243 13.2962 16.2068C13.4205 16.1706 13.551 16.1603 13.6795 16.1764C13.5314 16.1303 13.3987 16.0449 13.2957 15.9295C13.1927 15.8141 13.1231 15.673 13.0946 15.5213C13.2349 15.4583 13.3908 15.4378 13.5428 15.462C13.6949 15.4864 13.8364 15.5546 13.9498 15.6582C13.8601 15.5313 13.7562 15.4148 13.6402 15.3111C13.472 15.122 13.3535 14.8945 13.2952 14.6488C13.2369 14.4032 13.2406 14.147 13.3059 13.9031L13.301 13.9129V13.9129ZM15.2327 19.5155C15.157 19.4371 15.0984 19.3438 15.0607 19.2417C15.1344 19.9213 15.159 20.3662 15.5522 20.8111C15.6973 20.5054 15.7236 20.1571 15.6259 19.8333C15.5579 19.7957 15.4873 19.763 15.4146 19.7355C15.4648 19.9252 15.4782 20.1227 15.4539 20.3173C15.3429 20.0657 15.2716 19.7985 15.2425 19.5253L15.2327 19.5155V19.5155ZM14.6232 19.452C14.5475 19.3735 14.4889 19.2803 14.4512 19.1782C14.4119 19.584 14.3136 20.6106 14.6625 20.9235C14.6625 20.9235 14.8985 20.7524 14.9722 19.2417C14.8985 19.3151 14.8739 19.4129 14.8002 19.4764C14.8354 19.7524 14.8016 20.0329 14.7019 20.2929C14.7019 20.2929 14.5298 20.2049 14.6281 19.452H14.6232V19.452ZM13.7974 20.244C14.1071 19.8969 14.171 18.8457 14.171 18.8457L14.3086 18.748L14.348 18.7089V18.8066C14.3474 19.3543 14.2544 19.898 14.0727 20.4151C13.9326 20.6189 13.7455 20.7866 13.5271 20.904C13.1781 20.3222 13.6008 19.5302 13.9351 18.9484L14.0727 18.8751C13.9351 19.364 13.6991 19.8529 13.7974 20.2489V20.244ZM12.9766 18.4302C12.9714 18.4792 12.9855 18.5282 13.0159 18.5671V18.6062C12.6866 18.9468 12.3874 19.3147 12.1213 19.7062C11.9954 19.873 11.8351 20.0113 11.6512 20.1116C11.4672 20.2119 11.2639 20.272 11.0547 20.288C11.0991 19.8283 11.2903 19.3948 11.6003 19.0511C11.9384 18.6832 12.3177 18.3551 12.7308 18.0733C12.8399 18.1236 12.9623 18.1372 13.0798 18.1124H13.1191C13.0733 18.1578 13.0468 18.2191 13.0454 18.2835C12.5212 18.5228 12.0726 18.8997 11.7478 19.3737C11.6839 19.4226 12.1558 19.2857 12.952 18.4351L12.9766 18.4302V18.4302ZM12.431 17.8924L12.4703 17.8533L12.5097 17.8142C12.2344 17.912 11.2661 18.3031 10.9564 18.4302C10.7153 18.5634 10.5039 18.7439 10.335 18.9607C10.166 19.1775 10.043 19.4261 9.97338 19.6915C10.1834 19.7094 10.3949 19.6858 10.5956 19.622C10.7964 19.5583 10.9825 19.4556 11.1432 19.32C11.6888 18.8751 12.313 18.2591 12.549 18.0586L12.4752 17.9853C12.0225 18.3519 11.5274 18.6637 11.0007 18.9142C11.1158 18.7015 11.2854 18.5227 11.4922 18.396C11.7888 18.1773 12.1214 18.0119 12.4752 17.9071L12.431 17.8924V17.8924ZM11.8658 17.4182L11.9051 17.3449C11.5954 17.4182 10.7991 17.516 10.4305 17.6186C10.1362 17.6968 9.86141 17.8349 9.62366 18.0242C9.38586 18.2136 9.19028 18.4501 9.04931 18.7186C9.04931 18.7186 9.5949 18.8897 10.6664 18.4106C11.1718 18.1462 11.6998 17.927 12.2442 17.7555C12.1211 17.7555 12.0003 17.7217 11.8952 17.6577C11.4093 17.8932 10.8815 18.0311 10.342 18.0635C10.5092 17.9436 10.6908 17.845 10.8827 17.7702C11.1919 17.6069 11.5229 17.4884 11.8658 17.4182V17.4182ZM11.8658 16.9293C11.9641 16.971 12.0688 16.9958 12.1754 17.0026C12.0964 17.0483 12.0251 17.106 11.9641 17.1737C11.2876 17.3427 10.5962 17.4459 9.89965 17.4817C9.37249 17.5557 8.83569 17.5225 8.32185 17.384C8.74083 17.146 9.19308 16.9713 9.66372 16.8657C10.0373 16.7924 11.0695 16.7924 11.5512 16.7289C11.594 16.7655 11.6401 16.7982 11.6888 16.8266C11.1384 16.83 10.5922 16.9224 10.0717 17.1004C10.6752 17.1689 11.2863 17.1106 11.8658 16.9293V16.9293ZM11.8019 16.3133C11.8698 16.2757 11.9405 16.243 12.0132 16.2155C11.2586 15.956 10.4742 15.7918 9.67846 15.7266C9.11463 15.6585 8.54333 15.6833 7.98761 15.8C8.46366 16.111 8.98861 16.3407 9.54084 16.4795C10.2023 16.5841 10.874 16.6087 11.5413 16.5529C11.5794 16.49 11.6257 16.4325 11.679 16.3817C11.0401 16.3781 10.4048 16.2859 9.79151 16.108C10.4696 16.0555 11.1517 16.1217 11.8068 16.3035L11.8019 16.3133V16.3133ZM11.8068 15.6973C11.8759 15.9056 12.0217 16.0802 12.2147 16.1862C11.4578 15.8782 10.0127 15.668 9.22134 15.3697C8.15473 14.9249 7.97778 14.392 7.97778 14.392C8.73827 14.3978 9.49311 14.5232 10.2142 14.7635C10.8974 14.9737 11.9051 15.3453 12.2786 15.5164C12.1313 15.5168 11.9881 15.5648 11.8707 15.6533C11.4971 15.4822 11.0744 15.3795 10.7008 15.2475C10.4253 15.154 10.1367 15.1045 9.84558 15.1009C10.1042 15.2551 10.3796 15.3798 10.6664 15.4724C11.0498 15.5702 11.4234 15.6435 11.8117 15.7217L11.8068 15.6973V15.6973ZM11.7724 14.9297C11.8117 15.0031 11.8707 15.1009 11.91 15.1644C10.8066 14.9314 9.80837 14.3501 9.06405 13.5071C8.81785 13.0936 8.72077 12.609 8.7888 12.1333C9.33189 12.3783 9.82125 12.7271 10.229 13.16C10.6419 13.5958 11.0907 13.9965 11.5708 14.3577L11.7085 14.7635C11.3349 14.4555 10.8532 14.1084 10.578 13.8737C10.304 13.6625 10.0032 13.4883 9.68338 13.3555C9.84907 13.5639 10.0315 13.7585 10.229 13.9373C10.4835 14.1466 10.7585 14.33 11.0498 14.4849C11.2683 14.6677 11.5157 14.8131 11.7822 14.9151" fill="white"/>
<path d="M15.0901 18.1516L15.1884 18.0539C15.3261 18.225 15.4244 18.401 15.5374 18.5721C15.6071 18.7738 15.6646 18.9795 15.7095 19.1881C15.7463 19.3925 15.8177 19.5893 15.9208 19.7699C15.8286 19.7716 15.737 19.7537 15.6522 19.7175C15.5675 19.6812 15.4915 19.6274 15.4293 19.5596C15.2654 19.3507 15.1588 19.1031 15.1196 18.841C15.0524 18.6157 15.039 18.378 15.0803 18.1467L15.0901 18.1516V18.1516ZM14.5888 18.1859L14.6871 18.2836L14.7264 18.3227H14.7657L14.864 18.2836C14.909 18.3682 14.9342 18.4618 14.9378 18.5574C14.9749 18.7282 14.9749 18.9049 14.9378 19.0756C14.8913 19.227 14.8106 19.3658 14.7018 19.4814C14.602 19.3722 14.5222 19.2465 14.4659 19.1099C14.3912 18.9231 14.3912 18.7149 14.4659 18.5281C14.5151 18.3814 14.5544 18.2787 14.5888 18.181V18.1859V18.1859ZM13.9695 18.2054C14.1295 18.1822 14.2823 18.1238 14.4168 18.0343C14.4413 18.075 14.4574 18.1202 14.4641 18.1672C14.4709 18.2143 14.4682 18.2621 14.4561 18.3081C14.4093 18.4493 14.3283 18.577 14.2201 18.6796C14.1214 18.7645 14.0067 18.8289 13.8826 18.8692C13.7585 18.9095 13.6277 18.9249 13.4976 18.9143C13.4484 18.9387 13.3845 18.7285 13.9891 18.2103L13.9695 18.2054V18.2054ZM13.7532 17.8387C13.7675 17.9527 13.8154 18.0598 13.8908 18.1467C13.8059 18.2841 13.684 18.3949 13.5389 18.4667C13.3937 18.5384 13.2313 18.5682 13.07 18.5525C13.0316 18.4557 13.0322 18.3479 13.0715 18.2514C13.1109 18.155 13.186 18.0772 13.2813 18.0343C13.4435 17.9707 13.5812 17.8974 13.7728 17.8387" fill="white"/>
<path d="M13.8319 17.4965C13.6602 17.5334 13.4825 17.5334 13.3108 17.4965H13.2371V17.4182C12.9619 17.6285 12.6915 17.6529 12.5785 17.8631C12.6333 17.9395 12.708 17.9995 12.7947 18.0365C12.8813 18.0736 12.9766 18.0863 13.07 18.0733C13.2174 18.0611 13.3607 18.0187 13.491 17.9489C13.6212 17.8791 13.7356 17.7833 13.8269 17.6676C13.8123 17.6414 13.8046 17.6119 13.8046 17.582C13.8046 17.5521 13.8123 17.5226 13.8269 17.4965H13.8319V17.4965ZM13.242 17.1885C13.2766 17.0849 13.3356 16.991 13.4141 16.9147C13.1879 16.8777 12.957 16.8777 12.7308 16.9147C12.5528 16.9133 12.3791 16.9692 12.2356 17.0741C12.0921 17.1789 11.9865 17.3271 11.9346 17.4965C12.0986 17.5934 12.2924 17.6282 12.4802 17.5942C12.6278 17.5828 12.7714 17.5408 12.9018 17.471C13.0322 17.4011 13.1464 17.3049 13.2371 17.1885H13.242V17.1885ZM13.0995 16.6996C13.023 16.6131 12.9524 16.5216 12.8881 16.4258L12.8488 16.372C12.5935 16.2485 12.3014 16.2224 12.028 16.2987C11.8591 16.3492 11.7143 16.4585 11.62 16.6067C11.8128 16.7518 12.0394 16.846 12.2786 16.8805C12.5626 16.9176 12.851 16.8609 13.0995 16.7191V16.6996V16.6996ZM13.1732 16.1618C13.2125 16.1227 13.2715 16.1227 13.3453 16.1227C13.2024 15.982 13.1063 15.8011 13.07 15.6045C12.8884 15.6468 12.6981 15.6332 12.5244 15.5653C12.4281 15.5303 12.3247 15.5188 12.223 15.5315C12.1213 15.5443 12.0241 15.581 11.9395 15.6387C11.9753 15.7542 12.0432 15.8573 12.1354 15.936C12.2276 16.0147 12.3403 16.0659 12.4605 16.0836C12.5645 16.1499 12.6827 16.1911 12.8057 16.2038C12.9285 16.2165 13.0527 16.2005 13.1683 16.1569L13.1732 16.1618V16.1618ZM13.0159 15.4627L13.0897 15.4236C13.1747 15.3788 13.2688 15.3538 13.3649 15.3502C13.1393 15.1575 12.8975 14.9841 12.6424 14.832C12.3508 14.6638 12.0362 14.5387 11.7085 14.4605C11.8009 14.7407 11.9535 14.9976 12.1558 15.2133C12.2579 15.334 12.3935 15.4219 12.5456 15.4662C12.6977 15.5106 12.8596 15.5094 13.011 15.4627H13.0159V15.4627ZM13.4583 15.228C13.3446 15.0643 13.2644 14.8799 13.2224 14.6853C13.1486 14.4507 13.0847 14.1671 12.9864 13.9325C12.815 13.6208 12.5301 13.3864 12.1902 13.2773C12.1143 13.6052 12.1489 13.9487 12.2885 14.2551C12.5921 14.6713 12.9938 15.007 13.4583 15.2329V15.228ZM16.142 17.6773C16.2033 17.7357 16.2749 17.7822 16.3534 17.8142C16.3992 17.9188 16.4195 18.0326 16.4127 18.1465C16.4059 18.2603 16.3721 18.371 16.3141 18.4693C16.1471 18.7646 16.0104 19.0758 15.9061 19.3982C15.9061 19.3982 15.8078 19.3982 15.6947 18.8165C15.6603 18.6005 15.5648 18.3987 15.4195 18.2347C15.4833 18.275 15.5556 18.3 15.6308 18.308H15.7046L15.7439 18.2347C15.8048 18.1297 15.8307 18.0081 15.8176 17.8876V17.7898C15.8769 17.802 15.9383 17.798 15.9955 17.7782C16.0526 17.7584 16.1033 17.7235 16.142 17.6773V17.6773Z" fill="white"/>
<path d="M12.0574 13.5072V13.8152C11.7822 13.4681 11.4381 13.0232 11.0744 12.6174C10.9049 12.3927 10.6989 12.1977 10.4649 12.0405C10.6039 12.4712 10.8529 12.8586 11.1874 13.165C11.4548 13.4351 11.7406 13.6867 12.0427 13.9179L12.082 14.0156C12.1213 14.1134 12.1557 14.2259 12.1803 14.2894C12.2546 14.4252 12.3472 14.5502 12.4555 14.661C12.3572 14.6219 12.2442 14.5632 12.1459 14.5241H12.0574C11.1953 14.0379 10.4818 13.3283 9.993 12.4707C9.75048 11.8749 9.71755 11.2151 9.89961 10.5983C10.346 11.0009 10.7495 11.4482 11.1039 11.933C11.4664 12.4296 11.7854 12.9563 12.0574 13.5072ZM24.1981 16.3134C24.1301 16.2758 24.0595 16.2431 23.9867 16.2156C24.7414 15.9561 25.5258 15.7919 26.3215 15.7267C26.8853 15.6586 27.4566 15.6834 28.0123 15.8001C27.5363 16.1112 27.0113 16.3408 26.4591 16.4796C25.7977 16.5842 25.126 16.6088 24.4586 16.553C24.4205 16.4901 24.3743 16.4326 24.321 16.3819C24.9599 16.3782 25.5951 16.286 26.2084 16.1081C25.5304 16.0556 24.8483 16.1218 24.1932 16.3036L24.1981 16.3134V16.3134ZM24.1932 15.6974C24.124 15.9057 23.9783 16.0803 23.7852 16.1863C24.5422 15.8783 25.9873 15.6681 26.7786 15.3699C27.8452 14.925 28.0222 14.3921 28.0222 14.3921C27.2617 14.3979 26.5068 14.5233 25.7857 14.7636C25.1025 14.9739 24.0949 15.3454 23.7213 15.5165C23.8686 15.5169 24.0119 15.5649 24.1293 15.6534C24.5028 15.4823 24.9256 15.3796 25.2991 15.2476C25.5766 15.1633 25.8643 15.1173 26.1544 15.1107C25.8957 15.265 25.6204 15.3897 25.3335 15.4823C24.9501 15.5703 24.5766 15.6436 24.1883 15.717L24.1932 15.6974V15.6974ZM24.262 14.925C24.2227 14.9983 24.1637 15.0961 24.1244 15.1596C25.236 14.9328 26.2434 14.3529 26.9949 13.5072C27.2411 13.0937 27.3382 12.6091 27.2701 12.1334C26.727 12.3784 26.2377 12.7272 25.83 13.1601C25.4201 13.599 24.9709 13.9998 24.4881 14.3579L24.3505 14.7636C24.724 14.4556 25.2057 14.1085 25.481 13.8739C25.7549 13.6627 26.0557 13.4884 26.3756 13.3556C26.2099 13.564 26.0274 13.7585 25.83 13.9374C25.5738 14.1469 25.2972 14.3304 25.0042 14.485C24.7743 14.651 24.529 14.795 24.2718 14.9152L24.262 14.925V14.925ZM23.9622 13.5072V13.8152C24.2374 13.4681 24.5815 13.0232 24.9452 12.6174C25.1147 12.3927 25.3207 12.1977 25.5547 12.0405C25.4157 12.4712 25.1667 12.8586 24.8322 13.165C24.5648 13.4351 24.279 13.6867 23.9769 13.9179L23.9376 14.0156C23.8983 14.1134 23.8639 14.2259 23.8393 14.2894C23.765 14.4252 23.6724 14.5502 23.564 14.661C23.6623 14.6219 23.7754 14.5632 23.8737 14.5241L23.972 14.485C24.8341 13.9988 25.5476 13.2891 26.0364 12.4316C26.2723 11.8391 26.3017 11.185 26.12 10.5739C25.6736 10.9765 25.2701 11.4237 24.9157 11.9085C24.5448 12.4087 24.216 12.9385 23.9327 13.4925L23.9622 13.5072V13.5072ZM13.1191 18.6943C12.7701 19.0414 12.0132 19.8579 12.0869 20.7085C12.4854 20.5835 12.831 20.3308 13.07 19.9899C13.2422 19.651 13.4377 19.3243 13.6549 19.0121H13.3452C13.1454 19.4165 12.8524 19.7683 12.49 20.0387C12.49 20.0387 12.4162 19.633 13.3452 18.7432C13.3452 18.7041 13.3845 18.6699 13.4189 18.6454C13.3187 18.6758 13.214 18.6891 13.1093 18.6845L13.1191 18.6943V18.6943ZM22.7039 13.9032C22.4125 14.4556 21.9737 14.9174 21.4357 15.2379C21.3275 15.318 21.2519 15.4344 21.223 15.5655C21.1942 15.6967 21.2139 15.8338 21.2784 15.9516C21.4161 16.2987 21.6864 16.8023 21.5537 17.0125C21.421 17.2227 20.7574 17.3205 20.2511 17.1103C20.1692 17.288 20.0773 17.461 19.9759 17.6285C20.0216 17.6797 20.0828 17.7146 20.1502 17.7278C20.2177 17.741 20.2877 17.7319 20.3495 17.7019C20.3189 17.7861 20.3066 17.8758 20.3134 17.9652C20.3202 18.0544 20.3459 18.1413 20.3888 18.2201C20.4908 18.2002 20.5873 18.159 20.6721 18.0992C20.7569 18.0393 20.8278 17.9622 20.8803 17.873C20.9698 18.0116 21.1003 18.1192 21.2539 18.181C21.3359 18.1197 21.3966 18.0344 21.4274 17.9371C21.4583 17.8398 21.4577 17.7353 21.4259 17.6383C21.494 17.7577 21.5888 17.86 21.703 17.9372C21.8172 18.0143 21.9478 18.0643 22.0845 18.0832C22.1683 17.9594 22.2067 17.8106 22.1933 17.662C22.1799 17.5133 22.1155 17.3738 22.0108 17.2667C22.113 17.3427 22.233 17.3915 22.3594 17.4086C22.4858 17.4257 22.6145 17.4105 22.7334 17.3645C22.7334 17.3645 22.8071 17.1299 22.3844 16.7827C22.5234 16.7778 22.6589 16.7381 22.7784 16.6671C22.8978 16.5962 22.9973 16.4964 23.0676 16.377C22.9681 16.2945 22.8526 16.2333 22.7283 16.1971C22.604 16.1609 22.4735 16.1506 22.345 16.1667C22.4918 16.125 22.6224 16.0401 22.7198 15.9232C22.8172 15.8063 22.8767 15.6628 22.8906 15.5116C22.7503 15.4487 22.5944 15.4281 22.4424 15.4524C22.2903 15.4767 22.1488 15.5449 22.0354 15.6485C22.1251 15.5216 22.229 15.4052 22.345 15.3014C22.529 15.1211 22.6642 14.8975 22.7381 14.6514C22.812 14.4052 22.8222 14.1445 22.7678 13.8934L22.7039 13.9032V13.9032ZM20.8017 19.5059C20.8721 19.4234 20.9301 19.3312 20.9737 19.2321C20.9 19.9116 20.8754 20.3565 20.4822 20.8014C20.3371 20.4957 20.3108 20.1474 20.4084 19.8236C20.4764 19.786 20.547 19.7533 20.6198 19.7259C20.5696 19.9155 20.5562 20.113 20.5805 20.3076C20.6915 20.056 20.7628 19.7889 20.7918 19.5156L20.8017 19.5059V19.5059ZM21.4111 19.4423C21.4869 19.3638 21.5455 19.2706 21.5832 19.1685C21.6225 19.5743 21.7208 20.601 21.3718 20.9139C21.3718 20.9139 21.1359 20.7427 21.0622 19.2321C21.1359 19.3054 21.1605 19.4032 21.2342 19.4667C21.199 19.7428 21.2327 20.0232 21.3325 20.2832C21.3325 20.2832 21.5045 20.1952 21.4062 19.4423H21.4111ZM22.2271 20.2343C21.9174 19.8872 21.8535 18.8361 21.8535 18.8361C21.8154 18.7938 21.7684 18.7604 21.7159 18.7383L21.6962 18.709V18.8067C21.6968 19.3544 21.7898 19.8981 21.9715 20.4152C22.102 20.6272 22.2915 20.797 22.5171 20.9041C22.8661 20.3223 22.4434 19.5303 22.1091 18.9485C22.0566 18.9393 22.0084 18.9136 21.9715 18.8752C22.1091 19.3641 22.3549 19.853 22.2467 20.249L22.2271 20.2343V20.2343ZM23.0774 18.4303C23.0826 18.4793 23.0685 18.5283 23.0381 18.5672V18.6063C23.3674 18.9469 23.6667 19.3148 23.9327 19.7063C24.0586 19.8732 24.2189 20.0114 24.4029 20.1117C24.5868 20.212 24.7901 20.2721 24.9993 20.2881C24.955 19.8284 24.7637 19.3949 24.4537 19.0512C24.1157 18.6833 23.7364 18.3553 23.3232 18.0734C23.2142 18.1237 23.0917 18.1374 22.9742 18.1125H22.9349C22.9807 18.1579 23.0072 18.2192 23.0086 18.2836C23.5202 18.528 23.9565 18.9045 24.2718 19.3739C24.3357 19.4227 23.8491 19.2859 23.0676 18.4352L23.0774 18.4303V18.4303ZM23.5591 17.8925V17.8192L23.5198 17.7801C23.795 17.8779 24.7634 18.269 25.073 18.3961C25.3141 18.5293 25.5255 18.7097 25.6945 18.9266C25.8634 19.1433 25.9865 19.392 26.0561 19.6574C25.8461 19.6753 25.6346 19.6517 25.4338 19.5879C25.2331 19.5241 25.047 19.4215 24.8862 19.2859C24.3652 18.841 23.7164 18.225 23.4805 18.0245L23.5542 17.9512C24.007 18.3178 24.502 18.6296 25.0288 18.8801C24.9136 18.6674 24.744 18.4886 24.5373 18.3619C24.2342 18.1539 23.9033 17.9894 23.5542 17.873L23.5591 17.8925V17.8925ZM24.1539 17.4183C24.1539 17.3792 24.1145 17.3792 24.1145 17.345C24.4242 17.4183 25.2205 17.5161 25.5891 17.6187C25.8834 17.6969 26.1582 17.835 26.396 18.0243C26.6338 18.2137 26.8293 18.4502 26.9703 18.7187C26.9703 18.7187 26.4247 18.8899 25.3532 18.4107C24.8478 18.1463 24.3198 17.9271 23.7754 17.7556C23.8986 17.7556 24.0193 17.7218 24.1244 17.6579C24.6103 17.8933 25.1381 18.0312 25.6776 18.0636C25.5104 17.9437 25.3288 17.8451 25.1369 17.7703C24.8237 17.6162 24.4939 17.4981 24.1539 17.4183V17.4183ZM24.1539 16.9294C24.0556 16.9711 23.9509 16.9959 23.8442 17.0027C23.9232 17.0484 23.9946 17.1061 24.0556 17.1739C24.732 17.3428 25.4234 17.446 26.12 17.4819C26.6471 17.5558 27.1839 17.5226 27.6978 17.3841C27.2788 17.1461 26.8265 16.9715 26.3559 16.8659C25.9823 16.7925 24.9501 16.7925 24.4684 16.729C24.4256 16.7656 24.3795 16.7983 24.3308 16.8267C24.8812 16.8301 25.4274 16.9225 25.9479 17.1005C25.3444 17.1678 24.7335 17.1096 24.1539 16.9294V16.9294Z" fill="white"/>
<path d="M20.9295 18.1515L20.8312 18.0537C20.7056 18.2122 20.6014 18.3864 20.5215 18.572C20.4518 18.7737 20.3944 18.9794 20.3495 19.188C20.2957 19.3875 20.225 19.5821 20.1381 19.7697C20.2346 19.7706 20.3303 19.7524 20.4197 19.7164C20.5091 19.6803 20.5905 19.627 20.6592 19.5595C20.823 19.3506 20.9297 19.103 20.9688 18.8409C21.0149 18.6099 21.0014 18.371 20.9295 18.1466V18.1515V18.1515ZM21.421 18.1857L21.3227 18.2835L21.2834 18.3226H21.2441L21.1064 18.2835C21.0615 18.3681 21.0363 18.4617 21.0327 18.5573C20.9956 18.7281 20.9956 18.9047 21.0327 19.0755C21.0792 19.2269 21.1599 19.3657 21.2686 19.4813C21.3685 19.3721 21.4483 19.2463 21.5046 19.1097C21.5793 18.9229 21.5793 18.7148 21.5046 18.528C21.5052 18.4067 21.4748 18.2872 21.4161 18.1809L21.421 18.1857V18.1857ZM22.0354 18.2053C21.8754 18.1821 21.7226 18.1237 21.5881 18.0342C21.5636 18.0749 21.5475 18.1201 21.5407 18.1671C21.534 18.2141 21.5367 18.262 21.5488 18.308C21.5956 18.4492 21.6766 18.5769 21.7848 18.6795C21.8835 18.7644 21.9982 18.8288 22.1223 18.8691C22.2463 18.9094 22.3772 18.9247 22.5073 18.9142C22.5466 18.9386 22.6203 18.7284 22.0158 18.2102L22.0354 18.2053V18.2053ZM22.2517 17.8386C22.2374 17.9525 22.1895 18.0597 22.1141 18.1466C22.199 18.284 22.3209 18.3948 22.466 18.4666C22.6112 18.5383 22.7736 18.5681 22.9349 18.5524C22.9732 18.4556 22.9727 18.3478 22.9333 18.2513C22.894 18.1548 22.8189 18.0771 22.7236 18.0342C22.5614 17.9706 22.4237 17.8973 22.232 17.8386H22.2517V17.8386ZM22.1878 17.4964C22.3595 17.5333 22.5371 17.5333 22.7088 17.4964H22.7825V17.4182C23.0578 17.6284 23.3281 17.6529 23.4658 17.8631C23.4166 17.9343 23.3492 17.9913 23.2706 18.0282C23.1921 18.0652 23.1051 18.0807 23.0185 18.0733C22.871 18.061 22.7277 18.0187 22.5975 17.9489C22.4673 17.879 22.3529 17.7833 22.2615 17.6675C22.2152 17.6224 22.1887 17.5609 22.1878 17.4964V17.4964ZM22.7727 17.1884C22.7382 17.0848 22.6791 16.9909 22.6007 16.9146C22.8269 16.8776 23.0577 16.8776 23.2839 16.9146C23.4619 16.9133 23.6357 16.9691 23.7792 17.074C23.9227 17.1788 24.0283 17.327 24.0802 17.4964C23.9161 17.5934 23.7223 17.6281 23.5346 17.5942C23.3857 17.588 23.2403 17.5483 23.1091 17.478C22.978 17.4077 22.8646 17.3087 22.7776 17.1884H22.7727V17.1884ZM22.9153 16.6995C22.9992 16.6194 23.0705 16.5271 23.1266 16.4257L23.1659 16.3524C23.4213 16.2289 23.7134 16.2028 23.9868 16.2791C24.1556 16.3296 24.3005 16.4389 24.3948 16.5871C24.202 16.7322 23.9754 16.8264 23.7361 16.8609C23.4544 16.8624 23.1752 16.8076 22.9153 16.6995V16.6995ZM22.8022 16.1422C22.7629 16.1031 22.7039 16.1031 22.6302 16.1031C22.7714 15.9558 22.8772 15.7786 22.9398 15.5849C23.1215 15.6272 23.3118 15.6135 23.4854 15.5457C23.5818 15.5107 23.6851 15.4991 23.7868 15.5119C23.8886 15.5247 23.9858 15.5614 24.0703 15.6191C24.0346 15.7345 23.9666 15.8377 23.8744 15.9164C23.7823 15.9951 23.6695 16.0463 23.5493 16.064C23.4385 16.1316 23.3136 16.1733 23.1842 16.186C23.0549 16.1987 22.9242 16.182 22.8022 16.1373V16.1422V16.1422ZM22.9939 15.4626H22.9202C22.8351 15.4179 22.7411 15.3928 22.6449 15.3893C22.8706 15.1965 23.1123 15.0231 23.3675 14.8711C23.6512 14.6874 23.9686 14.5611 24.3014 14.4995C24.1944 14.773 24.0433 15.0273 23.8541 15.2524C23.7528 15.374 23.6172 15.4628 23.4648 15.5072C23.3124 15.5517 23.1501 15.5497 22.9988 15.5017L22.9939 15.4626V15.4626ZM22.5515 15.2671C22.6652 15.1033 22.7454 14.9189 22.7875 14.7244C22.8612 14.4897 22.9251 14.2062 23.0234 13.9715C23.1948 13.6599 23.4798 13.4254 23.8197 13.3164C23.8955 13.6443 23.861 13.9878 23.7214 14.2942C23.4207 14.7132 23.0183 15.0496 22.5515 15.272V15.2671V15.2671ZM19.8678 17.7164C19.8066 17.7748 19.7349 17.8212 19.6564 17.8533C19.6106 17.9579 19.5903 18.0717 19.5971 18.1855C19.6039 18.2994 19.6378 18.41 19.6958 18.5084C19.8627 18.8036 19.9994 19.1148 20.1037 19.4373C20.1037 19.4373 20.202 19.4373 20.3151 18.8555C20.3495 18.6396 20.445 18.4378 20.5903 18.2737C20.5265 18.314 20.4542 18.3391 20.379 18.3471H20.3053L20.2659 18.2737C20.205 18.1687 20.1792 18.0472 20.1922 17.9266V17.8289C20.133 17.8391 20.0721 17.8341 20.0154 17.8144C19.9586 17.7947 19.9078 17.761 19.8678 17.7164V17.7164Z" fill="white"/>
<path d="M22.8563 18.6943C23.2053 19.0414 23.9622 19.8579 23.8885 20.7085C23.49 20.5835 23.1444 20.3308 22.9054 19.9899C22.7331 19.651 22.5377 19.3243 22.3205 19.0121H22.6302C22.83 19.4165 23.123 19.7683 23.4854 20.0387C23.4854 20.0387 23.5592 19.633 22.6302 18.7432C22.6302 18.7041 22.5909 18.6699 22.5564 18.6454C22.6567 18.6758 22.7614 18.6891 22.8661 18.6845L22.8563 18.6943V18.6943ZM15.5964 12.4414C15.8181 12.3672 16.058 12.3672 16.2797 12.4414C16.0562 12.5034 15.8199 12.5034 15.5964 12.4414ZM18.1081 12.0405C18.1081 12.1139 18.0688 12.1383 18.0098 12.1383C17.9968 12.139 17.9836 12.137 17.9714 12.1323C17.9592 12.1276 17.948 12.1205 17.9388 12.1112C17.9295 12.102 17.9222 12.0909 17.9176 12.0788C17.9129 12.0666 17.9108 12.0535 17.9115 12.0405C17.9115 11.9672 17.9508 11.9427 18.0098 11.9427C18.0229 11.9421 18.036 11.9441 18.0483 11.9488C18.0605 11.9534 18.0717 11.9606 18.0809 11.9698C18.0902 11.979 18.0974 11.9901 18.1021 12.0023C18.1068 12.0145 18.1088 12.0275 18.1081 12.0405ZM17.4249 11.669C17.289 11.3983 17.185 11.1128 17.1153 10.8183C17.1546 10.745 17.189 10.6814 17.2873 10.6814C17.3856 10.6814 17.4249 10.6423 17.4593 10.6814C17.5805 10.9638 17.652 11.2648 17.6707 11.5712C17.5843 11.5961 17.5004 11.6288 17.42 11.669H17.4249ZM17.7542 11.5956H17.8919C17.8563 11.3402 17.7988 11.0883 17.7198 10.8427C17.7109 10.7843 17.6873 10.729 17.6512 10.682C17.6151 10.635 17.5677 10.5978 17.5134 10.5739C17.5527 10.7107 17.6117 10.8476 17.651 10.9796C17.7001 11.1877 17.7378 11.3982 17.7641 11.6103L17.7542 11.5956V11.5956ZM17.4888 12.329C17.3093 12.4249 17.1076 12.4721 16.9039 12.4659C16.9825 12.3306 17.0879 12.2125 17.2136 12.1187C17.3862 12.0059 17.5934 11.9574 17.7985 11.9819C17.7219 12.1186 17.6162 12.2371 17.4888 12.329ZM17.1791 12.3681C17.3337 12.3077 17.473 12.2143 17.5871 12.0943C17.42 12.1282 17.2733 12.2267 17.1791 12.3681Z" fill="white"/>
<path d="M15.5374 12.505C15.7581 12.5754 15.989 12.6084 16.2207 12.6027C16.6262 12.606 17.0306 12.5601 17.4249 12.4659C17.4092 12.5152 17.3818 12.56 17.345 12.5966C17.3082 12.6332 17.2631 12.6605 17.2135 12.6761C17.2783 12.6775 17.3399 12.7038 17.3856 12.7494C17.3642 12.7909 17.3343 12.8275 17.2979 12.857C17.2616 12.8864 17.2194 12.9081 17.1742 12.9205C17.32 13.0642 17.5148 13.148 17.7198 13.1552C17.6651 13.2034 17.5992 13.2376 17.5281 13.2546C17.4569 13.2716 17.3827 13.2711 17.3119 13.253C17.1349 13.2173 16.9763 13.1203 16.8646 12.9792C16.8957 13.0447 16.9092 13.1172 16.9039 13.1894C16.8574 13.1833 16.8126 13.168 16.7721 13.1445C16.7316 13.121 16.6962 13.0897 16.668 13.0525C16.7122 13.1232 16.7376 13.204 16.7417 13.2872C16.6652 13.2858 16.5911 13.2601 16.5303 13.2139C16.5607 13.2656 16.5744 13.3253 16.5696 13.385C16.384 13.3184 16.2086 13.2263 16.0486 13.1112V13.2823C16.088 13.3214 15.5571 13.2432 15.5571 12.4903L15.5374 12.505V12.505ZM16.4517 12.7983H15.8471C15.8532 12.8445 15.8686 12.8891 15.8922 12.9294C15.9159 12.9697 15.9473 13.0049 15.9847 13.033C15.9847 12.7983 16.432 12.7983 16.432 12.7983H16.4517ZM15.449 12.5636C15.4518 12.7169 15.4852 12.8682 15.5473 13.0085C15.4425 12.9432 15.3603 12.8477 15.3113 12.7347C15.272 12.5636 15.272 12.4854 15.449 12.5636ZM15.562 13.0525L15.8373 13.2627C15.7359 13.3009 15.6326 13.3335 15.5276 13.3605C15.4261 13.2766 15.2983 13.2307 15.1663 13.2307C15.0344 13.2307 14.9066 13.2766 14.8051 13.3605C14.7547 13.3341 14.7105 13.2973 14.6757 13.2525C14.6409 13.2077 14.616 13.156 14.603 13.1008C14.5899 13.0457 14.5889 12.9884 14.6001 12.9328C14.6112 12.8773 14.6342 12.8247 14.6674 12.7787C14.7281 12.7124 14.8086 12.6672 14.8971 12.6496C14.9855 12.632 15.0773 12.643 15.159 12.681C15.1969 12.7679 15.2528 12.846 15.3231 12.91C15.3934 12.974 15.4765 13.0226 15.5669 13.0525H15.562V13.0525ZM15.0754 13.1259C15.09 13.1259 15.1043 13.1216 15.1164 13.1135C15.1285 13.1054 15.1379 13.094 15.1435 13.0806C15.1491 13.0672 15.1506 13.0524 15.1477 13.0382C15.1449 13.024 15.1378 13.0109 15.1276 13.0007C15.1172 12.9904 15.1041 12.9834 15.0898 12.9806C15.0755 12.9778 15.0607 12.9792 15.0472 12.9848C15.0337 12.9903 15.0222 12.9997 15.0141 13.0118C15.006 13.0238 15.0017 13.038 15.0017 13.0525C15.0017 13.0916 15.0017 13.1259 15.0754 13.1259ZM15.8569 13.3214C15.9297 13.4175 16.0086 13.5089 16.0929 13.5952C15.9467 13.5901 15.8026 13.6301 15.6802 13.7097C15.5579 13.7894 15.4634 13.9048 15.4096 14.0401C15.3604 13.9692 15.3308 13.8868 15.3239 13.8009C15.317 13.7151 15.333 13.6289 15.3703 13.5512C15.4313 13.4802 15.5065 13.4226 15.5911 13.3822C15.6758 13.3417 15.768 13.3194 15.8619 13.3165L15.8569 13.3214ZM16.4566 13.429L16.6925 13.5023V13.3654C16.7663 13.3654 16.7908 13.4045 16.8646 13.4045C16.9244 13.6176 17.0226 13.818 17.1546 13.9961C17.1466 14.0709 17.1213 14.1428 17.0808 14.2063C16.9977 14.0655 16.9058 13.9299 16.8056 13.8005C16.7169 13.6577 16.5866 13.5452 16.432 13.4779L16.4566 13.429V13.429ZM15.9847 13.4045C16.1608 13.4418 16.3279 13.5133 16.4763 13.6147C16.5598 13.6666 16.6288 13.7386 16.6769 13.824C16.7251 13.9095 16.7507 14.0057 16.7515 14.1036C16.6762 13.9973 16.5831 13.9048 16.4763 13.8299C16.2757 13.7388 16.1053 13.593 15.9847 13.4094V13.4045ZM15.9847 11.6641C16.0585 11.6641 16.1224 11.7032 16.1224 11.7619C16.0806 11.8922 16.0228 12.0171 15.9503 12.1334C15.8709 12.0209 15.8126 11.895 15.7783 11.7619C15.8009 11.7276 15.8326 11.7003 15.87 11.683C15.9073 11.6657 15.9488 11.6592 15.9896 11.6641H15.9847ZM15.8766 12.3192C15.8477 12.1519 15.8016 11.9881 15.739 11.8303C15.6751 11.79 15.6028 11.7649 15.5276 11.757C15.5023 11.7592 15.4786 11.7702 15.4606 11.7881C15.4426 11.806 15.4315 11.8296 15.4293 11.8547V11.8939C15.5119 12.0476 15.6038 12.1961 15.7046 12.3387C15.7591 12.3171 15.8181 12.3087 15.8766 12.3143V12.3192V12.3192ZM16.0486 12.3143C16.0775 12.1471 16.1236 11.9832 16.1863 11.8254C16.2501 11.7851 16.3224 11.76 16.3976 11.7521C16.4229 11.7543 16.4467 11.7653 16.4647 11.7832C16.4826 11.8011 16.4937 11.8247 16.4959 11.8499V11.889C16.4218 12.0474 16.3295 12.1967 16.2207 12.3339C16.1664 12.3112 16.1071 12.3028 16.0486 12.3094V12.3143V12.3143ZM16.2207 11.2485H16.0093V11.0627H15.911V11.2339H15.6996V11.3707H15.911V11.5516H16.0093V11.3561H16.2207V11.2485ZM14.1218 12.4707V12.1383C14.038 12.1658 13.9612 12.2111 13.8967 12.271C13.8322 12.331 13.7816 12.4041 13.7483 12.4854C13.7483 12.4854 14.0235 12.3143 14.1218 12.4854V12.4707ZM14.3578 12.9303C14.3971 12.7934 14.4315 12.6223 14.4561 12.4854C14.4908 12.3838 14.5022 12.2757 14.4895 12.1691C14.4767 12.0625 14.4401 11.9601 14.3824 11.8694C14.3095 11.717 14.2757 11.549 14.2841 11.3805L14.0481 11.4783C14.0588 11.6491 14.1057 11.8157 14.1857 11.9672C14.2351 12.0965 14.2487 12.2367 14.2251 12.373C14.2061 12.4703 14.2086 12.5704 14.2323 12.6667C14.2561 12.7629 14.3006 12.8529 14.3627 12.9303H14.3578V12.9303ZM14.3627 11.4636V11.3659C14.491 11.2223 14.6642 11.1259 14.8542 11.0921C14.9525 11.053 15.0263 11.0921 15.1295 11.1654C15.0647 11.1668 15.0031 11.1931 14.9574 11.2387C14.8523 11.3323 14.7349 11.4112 14.6085 11.4734C14.5299 11.4676 14.4511 11.4676 14.3725 11.4734" fill="white"/>
<path d="M15.1148 11.1311C15.1987 11.2029 15.2587 11.2984 15.2868 11.4049C15.2561 11.5498 15.1977 11.6876 15.1148 11.8107C15.0312 11.9078 14.9827 12.03 14.9771 12.1578C14.9771 12.2311 15.0509 12.2947 15.0754 12.368C15.002 12.3474 14.9334 12.3127 14.8735 12.2657C14.8137 12.2187 14.7637 12.1604 14.7265 12.0942C14.7078 12.0292 14.7071 11.9604 14.7244 11.895C14.7417 11.8296 14.7764 11.7701 14.8248 11.7227C14.8857 11.5885 14.9651 11.4635 15.0607 11.3511C15.0997 11.2829 15.1168 11.2044 15.1099 11.1262L15.1148 11.1311V11.1311ZM16.9383 13.2871C16.9967 13.495 17.0897 13.6917 17.2136 13.8689C17.2993 14.018 17.3466 14.186 17.3512 14.3578C17.4227 14.1949 17.4481 14.0157 17.4249 13.8396C17.3377 13.6023 17.1616 13.4078 16.9334 13.2969L16.9383 13.2871V13.2871ZM17.2824 13.3604C17.3891 13.3673 17.4938 13.3921 17.5921 13.4338C17.7504 13.555 17.8602 13.7283 17.9017 13.9227C17.7924 13.8921 17.6881 13.846 17.5921 13.7858C17.4525 13.6761 17.3455 13.5308 17.2824 13.3653V13.3604V13.3604ZM16.1765 13.7858C16.1027 13.7858 16.0388 13.8249 15.9651 13.8249C16.0616 13.8604 16.1539 13.9063 16.2404 13.9618C16.2913 14.0049 16.3328 14.058 16.3624 14.1177C16.392 14.1774 16.409 14.2424 16.4124 14.3089C16.4602 14.4977 16.5312 14.68 16.6238 14.8516C16.6264 14.6665 16.6596 14.4832 16.7221 14.3089C16.643 14.2633 16.5717 14.2055 16.5107 14.1378C16.4441 13.9864 16.3256 13.8635 16.1765 13.7907V13.7858V13.7858ZM17.1595 14.2796C17.2372 14.4377 17.276 14.612 17.2726 14.788C17.1927 14.9735 17.0885 15.1478 16.9629 15.3062C16.9201 15.1034 16.8955 14.8973 16.8892 14.6902C16.8857 14.6003 16.9074 14.5112 16.9516 14.4327C16.9958 14.3542 17.061 14.2894 17.1399 14.2453L17.1595 14.2796V14.2796ZM17.5134 14.2453C17.6195 14.4289 17.7036 14.6241 17.7641 14.8271C17.7811 14.8905 17.7833 14.957 17.7705 15.0214C17.7578 15.0858 17.7303 15.1465 17.6904 15.1987C17.5921 15.3356 17.479 15.4724 17.3807 15.6044C17.3152 15.5243 17.2682 15.4308 17.2431 15.3307C17.2346 15.1947 17.2445 15.0582 17.2726 14.9249C17.3801 14.7078 17.4641 14.48 17.5232 14.2453H17.5134V14.2453ZM17.6609 15.58C17.5281 15.7148 17.4111 15.864 17.3119 16.0249C17.2753 16.08 17.2558 16.1446 17.2558 16.2107C17.2558 16.2767 17.2753 16.3413 17.3119 16.3964C17.4201 16.5474 17.5591 16.674 17.7199 16.768C17.6229 16.6237 17.5747 16.4525 17.5822 16.2791C17.6193 16.1602 17.6654 16.0441 17.7199 15.932C17.7259 15.8098 17.704 15.6877 17.656 15.5751L17.6609 15.58V15.58ZM17.1644 15.404C17.2313 15.4926 17.266 15.6012 17.2627 15.712C17.2561 15.8499 17.2313 15.9863 17.189 16.1178C17.1149 16.3195 17.0228 16.5142 16.9138 16.6996C16.8426 16.6052 16.7847 16.5016 16.7417 16.3916C16.84 16.2547 16.9138 16.1178 17.017 15.9858C17.0806 15.7958 17.1299 15.6013 17.1644 15.404ZM17.0907 15.3062C17.0203 15.6707 16.8819 16.019 16.6827 16.3329C16.6269 16.4358 16.549 16.5255 16.4549 16.5955C16.3606 16.6656 16.2522 16.7144 16.1371 16.7387C16.0356 16.7339 15.9382 16.6979 15.8581 16.6358C15.778 16.5736 15.7192 16.4883 15.6899 16.3916C15.6551 16.3023 15.6436 16.2057 15.6565 16.1108C15.6694 16.0159 15.7062 15.9258 15.7636 15.8489C15.7852 15.9352 15.8286 16.0147 15.8896 16.0797C15.9507 16.1447 16.0274 16.1932 16.1126 16.2204C16.3731 16.196 16.7221 15.888 17.0956 15.3062" fill="white"/>
<path d="M16.781 15.0716C16.8152 15.1998 16.8152 15.3346 16.781 15.4627C16.7679 15.5336 16.7401 15.6011 16.6995 15.6608C16.6589 15.7205 16.6063 15.7713 16.5451 15.8099C16.4653 15.856 16.3712 15.8715 16.2807 15.8535C16.1902 15.8355 16.1094 15.7852 16.0536 15.7121L16.0142 15.673C16.1863 15.6557 16.3499 15.5899 16.4857 15.4834C16.6215 15.3768 16.724 15.234 16.781 15.0716V15.0716ZM17.6265 17.4183C17.7577 17.5819 17.8622 17.765 17.9361 17.961C17.9294 18.2147 17.8565 18.4623 17.7248 18.6796C17.5677 18.5496 17.4474 18.3811 17.3758 18.1907C17.3575 18.0516 17.3705 17.9101 17.4138 17.7765C17.4572 17.6429 17.5298 17.5206 17.6265 17.4183V17.4183ZM17.2922 17.653C17.352 17.4873 17.4457 17.3358 17.5675 17.2081C17.6036 17.0618 17.5888 16.9077 17.5254 16.7709C17.462 16.6341 17.3538 16.5228 17.2185 16.4552C17.0929 16.6171 16.9995 16.8012 16.9432 16.9979C16.9039 17.2814 17.1792 17.4183 17.2922 17.653V17.653ZM16.6729 16.4894C16.5976 16.5957 16.5045 16.6883 16.3976 16.7632V17.1103C16.4514 17.3098 16.5221 17.5044 16.609 17.6921C16.7161 17.5605 16.7963 17.4094 16.8449 17.2472C16.8733 17.1138 16.8865 16.9777 16.8842 16.8414C16.8231 16.7204 16.7524 16.6043 16.6729 16.4943V16.4894ZM16.088 17.4721C15.9414 17.2645 15.8425 17.0276 15.798 16.7779C15.8722 16.8193 15.9546 16.8442 16.0394 16.8509C16.1243 16.8577 16.2096 16.8461 16.2895 16.817C16.3268 16.9629 16.3268 17.1159 16.2895 17.2619C16.225 17.3452 16.1543 17.4236 16.0781 17.4965L16.088 17.4721V17.4721ZM16.1175 17.5699L16.2895 17.4183C16.3288 17.3792 16.4615 17.7263 16.5009 17.8241C16.4271 17.8241 16.3632 17.8241 16.3288 17.785C16.265 17.713 16.1942 17.6476 16.1175 17.5894V17.5699V17.5699ZM16.9039 17.4183C16.7994 17.5893 16.6828 17.7527 16.5549 17.9072C16.592 18.0261 16.638 18.1422 16.6926 18.2543C16.7756 18.4037 16.8799 18.5403 17.0022 18.6601C17.0862 18.5322 17.1569 18.3963 17.2136 18.2543C17.2708 18.1481 17.2915 18.0262 17.2726 17.9072C17.1988 17.7361 16.9973 17.5601 16.9236 17.389L16.9039 17.4183V17.4183ZM17.2726 18.3472C17.3866 18.4967 17.4792 18.6612 17.5478 18.8361C17.5719 18.9401 17.5579 19.0493 17.5085 19.1441C17.4692 19.2174 17.3709 19.3787 17.2971 19.5156C17.1585 19.4112 17.0513 19.2708 16.9875 19.1099C16.9664 19.043 16.959 18.9727 16.9657 18.903C16.9725 18.8333 16.9933 18.7657 17.0268 18.7041C17.1005 18.6063 17.2381 18.5085 17.2775 18.357L17.2726 18.3472V18.3472ZM16.5795 18.3325C16.6763 18.4565 16.7557 18.593 16.8154 18.7383C16.8517 18.7998 16.8709 18.8699 16.8709 18.9412C16.8709 19.0125 16.8517 19.0826 16.8154 19.1441C16.7417 19.281 16.6778 19.3787 16.6434 19.4521C16.5436 19.3429 16.4637 19.2171 16.4075 19.0805C16.3706 18.9477 16.3706 18.8075 16.4075 18.6747C16.4891 18.5726 16.5477 18.4542 16.5795 18.3276V18.3325V18.3325ZM17.5625 19.3054C17.422 19.4909 17.3231 19.7043 17.2726 19.9312C17.3263 20.1418 17.397 20.3478 17.4839 20.5472C17.5834 20.447 17.6635 20.3293 17.7198 20.2001C17.8051 20.0683 17.8399 19.9104 17.8181 19.7552C17.8224 19.671 17.8068 19.5869 17.7727 19.5096C17.7386 19.4324 17.6868 19.3642 17.6215 19.3103L17.5625 19.3054V19.3054ZM16.9629 19.2712C17.0685 19.4242 17.1282 19.6039 17.1349 19.7894C17.0613 19.9618 16.969 20.1258 16.8597 20.2783C16.7869 20.1501 16.7292 20.0139 16.6876 19.8725C16.6845 19.7595 16.7078 19.6473 16.7556 19.5447C16.8033 19.4421 16.8743 19.3518 16.9629 19.281V19.2712ZM20.4429 12.4365C20.2213 12.3624 19.9813 12.3624 19.7597 12.4365C19.9832 12.4985 20.2194 12.4985 20.4429 12.4365ZM18.0098 11.3414C18.0971 11.1287 18.1678 10.9097 18.2212 10.6863C18.2212 10.6305 18.1989 10.5771 18.1593 10.5376C18.1196 10.4982 18.0659 10.4761 18.0098 10.4761C17.9538 10.4761 17.9 10.4982 17.8604 10.5376C17.8208 10.5771 17.7985 10.6305 17.7985 10.6863C17.8464 10.9112 17.9172 11.1307 18.0098 11.3414V11.3414ZM18.5948 11.6885C18.7307 11.4178 18.8346 11.1324 18.9044 10.8379C18.8651 10.7645 18.8307 10.701 18.7668 10.701C18.7029 10.701 18.6292 10.6619 18.5948 10.701C18.4735 10.9833 18.4021 11.2843 18.3834 11.5907C18.4227 11.6152 18.521 11.6543 18.5948 11.6885ZM18.2556 11.6103H18.1081C18.1437 11.3549 18.2012 11.103 18.2802 10.8574C18.28 10.7931 18.3011 10.7305 18.3401 10.6793C18.3792 10.628 18.4341 10.591 18.4964 10.5739C18.4571 10.7107 18.3981 10.8476 18.3588 10.9796C18.3195 11.1899 18.2851 11.4001 18.2458 11.5956L18.2556 11.6103V11.6103ZM18.2851 11.977C18.4888 11.9707 18.6905 12.0179 18.87 12.1139C19.0039 12.1984 19.1112 12.3186 19.1797 12.461C18.976 12.4672 18.7743 12.42 18.5948 12.3241C18.5183 12.2963 18.45 12.25 18.3959 12.1894C18.3418 12.1288 18.3038 12.0558 18.2851 11.977ZM18.4227 12.0747C18.5368 12.1948 18.6761 12.2883 18.8307 12.3485C18.7867 12.2762 18.7275 12.2142 18.6571 12.1669C18.5866 12.1196 18.5066 12.0881 18.4227 12.0747V12.0747ZM19.9366 13.3116V13.1405C19.7863 13.2539 19.6209 13.3461 19.4451 13.4143C19.4403 13.3546 19.454 13.2949 19.4844 13.2432C19.4206 13.2835 19.3483 13.3085 19.2731 13.3165C19.3124 13.2432 19.3124 13.1454 19.3714 13.0819C19.3439 13.1199 19.3087 13.1518 19.2681 13.1754C19.2274 13.1989 19.1822 13.2138 19.1354 13.2187C19.1301 13.1465 19.1436 13.074 19.1748 13.0085C19.0784 13.1477 18.9326 13.2455 18.7668 13.2823C18.6959 13.3004 18.6217 13.301 18.5506 13.284C18.4794 13.2669 18.4136 13.2328 18.3588 13.1845C18.5644 13.1798 18.7601 13.0956 18.9044 12.9499C18.8254 12.9042 18.7541 12.8465 18.6931 12.7787C18.7387 12.7331 18.8004 12.7068 18.8651 12.7054C18.8155 12.6898 18.7704 12.6625 18.7336 12.626C18.6968 12.5893 18.6694 12.5445 18.6537 12.4952C19.0477 12.5914 19.4524 12.6375 19.858 12.6321C20.0893 12.6326 20.3194 12.5996 20.5412 12.5343C20.4429 13.253 19.9317 13.3263 19.9317 13.3263L19.9366 13.3116ZM20.03 13.0183C20.0683 12.991 20.1003 12.956 20.124 12.9156C20.1477 12.8751 20.1626 12.8302 20.1676 12.7836C19.9605 12.789 19.7532 12.7759 19.5483 12.7445V12.7836C19.5876 12.8081 20.0398 12.8081 20.0398 13.0183H20.03ZM20.5854 12.5734C20.5826 12.7267 20.5492 12.8779 20.4871 13.0183C20.5919 12.9529 20.6742 12.8575 20.7231 12.7445C20.7624 12.5979 20.7624 12.4952 20.5854 12.5734ZM20.9344 12.7347C21.0161 12.6968 21.1079 12.6858 21.1963 12.7034C21.2848 12.721 21.3652 12.7662 21.4259 12.8325C21.4709 12.931 21.4818 13.0415 21.4569 13.1468C21.432 13.252 21.3727 13.3461 21.2883 13.4143C21.1868 13.3304 21.059 13.2845 20.927 13.2845C20.7951 13.2845 20.6673 13.3304 20.5658 13.4143C20.4687 13.3649 20.3641 13.3318 20.2561 13.3165C20.3333 13.2293 20.4268 13.1579 20.5314 13.1063C20.7076 13.0349 20.8523 12.9031 20.9393 12.7347H20.9344V12.7347ZM21.077 13.1161C21.077 13.1016 21.0726 13.0874 21.0645 13.0753C21.0564 13.0633 21.0449 13.0539 21.0314 13.0483C21.018 13.0428 21.0031 13.0413 20.9888 13.0442C20.9745 13.047 20.9614 13.054 20.9511 13.0642C20.9408 13.0745 20.9338 13.0875 20.9309 13.1017C20.9281 13.116 20.9296 13.1307 20.9351 13.1441C20.9407 13.1575 20.9501 13.169 20.9623 13.177C20.9744 13.1851 20.9886 13.1894 21.0032 13.1894C21.0426 13.1894 21.077 13.1503 21.077 13.1161ZM20.1824 13.3507C20.1096 13.4468 20.0308 13.5382 19.9465 13.6245C20.0926 13.6194 20.2367 13.6594 20.3591 13.7391C20.4814 13.8188 20.576 13.9341 20.6297 14.0694C20.6789 13.9986 20.7085 13.9161 20.7154 13.8302C20.7223 13.7444 20.7063 13.6583 20.669 13.5805C20.61 13.5072 20.5352 13.4481 20.4501 13.4075C20.365 13.3669 20.2718 13.3458 20.1775 13.3459" fill="white"/>
<path d="M19.5876 13.468L19.3517 13.5413V13.4045C19.2779 13.4045 19.2534 13.4436 19.1796 13.4436C19.1081 13.6446 19.0016 13.8316 18.8651 13.996C18.8731 14.0708 18.8983 14.1427 18.9388 14.2062C19.022 14.0654 19.1139 13.9299 19.214 13.8005C19.31 13.664 19.4383 13.5531 19.5876 13.4778V13.468V13.468ZM20.0349 13.4045C19.8588 13.4418 19.6918 13.5132 19.5434 13.6147C19.4598 13.6666 19.3908 13.7385 19.3427 13.824C19.2946 13.9095 19.2689 14.0056 19.2681 14.1036C19.3434 13.9973 19.4365 13.9047 19.5434 13.8298C19.7365 13.7277 19.9044 13.584 20.0349 13.4093V13.4045ZM20.0349 11.664C19.9612 11.664 19.8973 11.7031 19.8973 11.7618C19.939 11.8922 19.9968 12.017 20.0693 12.1333C20.1487 12.0209 20.207 11.895 20.2413 11.7618C20.1852 11.7046 20.11 11.6699 20.03 11.664H20.0349V11.664ZM20.1283 12.3191C20.1389 12.1483 20.1858 11.9817 20.2659 11.8302C20.3298 11.79 20.4021 11.7649 20.4773 11.7569C20.5166 11.7569 20.5756 11.796 20.551 11.8547V11.8938C20.4684 12.0475 20.3764 12.1961 20.2757 12.3387C20.2757 12.3142 20.202 12.3142 20.1283 12.3142V12.3191V12.3191ZM19.9661 12.3142C19.9372 12.147 19.8911 11.9832 19.8284 11.8253C19.7646 11.7851 19.6923 11.76 19.6171 11.752C19.5918 11.7542 19.568 11.7652 19.55 11.7831C19.5321 11.801 19.521 11.8246 19.5188 11.8498V11.8889C19.6014 12.0426 19.6933 12.1912 19.794 12.3338C19.8484 12.3112 19.9076 12.3027 19.9661 12.3093V12.3142V12.3142ZM19.794 11.2485H19.9906V11.0627H20.1283V11.2338H20.3003V11.3707H20.1283V11.5516H19.9906V11.356H19.794V11.2485ZM17.764 10.1436H17.9361V9.93335H18.0737V10.1436H18.2556V10.2413H18.0835V10.4907H17.9459V10.2413H17.764V10.1436ZM21.9027 12.4658V12.1333C21.9865 12.1609 22.0633 12.2061 22.1278 12.2661C22.1923 12.326 22.243 12.3992 22.2762 12.4805C22.2762 12.4805 22.001 12.3093 21.9027 12.4805V12.4658ZM21.652 12.9253C21.6127 12.7885 21.5783 12.6173 21.5537 12.4805C21.4911 12.2772 21.5051 12.0582 21.593 11.8645C21.6838 11.7185 21.7187 11.545 21.6913 11.3756L21.9273 11.4733C21.9166 11.6442 21.8697 11.8108 21.7896 11.9622C21.7402 12.0915 21.7267 12.2317 21.7503 12.368C21.7882 12.4607 21.7991 12.5622 21.7817 12.6607C21.7643 12.7593 21.7193 12.851 21.652 12.9253ZM21.652 11.4587V11.3609C21.5237 11.2174 21.3506 11.1209 21.1605 11.0871C21.0622 11.048 20.9884 11.0871 20.8852 11.1605C20.95 11.1619 21.0116 11.1882 21.0573 11.2338C21.1624 11.3273 21.2798 11.4063 21.4062 11.4685C21.4848 11.464 21.5636 11.464 21.6422 11.4685" fill="white"/>
<path d="M20.8951 11.1311C20.8112 11.2029 20.7511 11.2984 20.7231 11.4049C20.7538 11.5498 20.8122 11.6876 20.8951 11.8107C20.9787 11.9078 21.0272 12.03 21.0327 12.1578C21.0327 12.2311 20.959 12.2947 20.9344 12.368C21.0078 12.3474 21.0764 12.3127 21.1364 12.2657C21.1962 12.2187 21.2462 12.1604 21.2834 12.0942C21.3021 12.0292 21.3028 11.9604 21.2855 11.895C21.2682 11.8296 21.2335 11.7701 21.1851 11.7227C21.1242 11.5885 21.0448 11.4635 20.9492 11.3511C20.9102 11.2829 20.893 11.2044 20.9 11.1262L20.8951 11.1311V11.1311ZM19.0863 13.2871C19.028 13.495 18.9349 13.6917 18.811 13.8689C18.7152 14.0245 18.6674 14.2047 18.6734 14.3871C18.6019 14.2243 18.5764 14.0451 18.5997 13.8689C18.6264 13.7389 18.6854 13.6175 18.7712 13.516C18.8571 13.4144 18.9671 13.3357 19.0912 13.2871H19.0863V13.2871ZM18.7422 13.3507C18.6356 13.3575 18.5309 13.3823 18.4326 13.424C18.2742 13.5452 18.1644 13.7185 18.1229 13.9129C18.2322 13.8823 18.3365 13.8362 18.4326 13.776C18.5692 13.6635 18.6756 13.519 18.7422 13.3556V13.3507V13.3507ZM19.8482 13.776C19.9219 13.776 19.9858 13.8151 20.0595 13.8151C19.963 13.8506 19.8707 13.8965 19.7843 13.952C19.7333 13.9952 19.6918 14.0482 19.6623 14.1079C19.6327 14.1676 19.6157 14.2327 19.6122 14.2991C19.5645 14.488 19.4935 14.6702 19.4009 14.8418C19.3983 14.6567 19.365 14.4734 19.3026 14.2991C19.3816 14.2535 19.4529 14.1957 19.5139 14.128C19.5432 14.0507 19.5879 13.9801 19.6453 13.9204C19.7027 13.8607 19.7717 13.8133 19.8482 13.7809V13.776V13.776ZM18.8651 14.2698C18.7842 14.4305 18.7437 14.6083 18.7471 14.788C18.827 14.9735 18.9312 15.1478 19.0568 15.3062C19.0996 15.1034 19.1242 14.8973 19.1305 14.6902C19.129 14.6012 19.1053 14.514 19.0616 14.4363C19.0178 14.3587 18.9554 14.293 18.8799 14.2453L18.8651 14.2698V14.2698ZM18.0099 14.8613C18.0099 14.7244 18.3195 14.4164 18.3195 14.2453C18.2953 14.1737 18.2548 14.1086 18.2011 14.0552C18.1473 14.0017 18.0819 13.9614 18.0099 13.9373C17.878 14.0069 17.7702 14.1142 17.7002 14.2453C17.7002 14.4164 18.0099 14.7636 18.0099 14.8613ZM18.5014 14.2453C18.397 14.4291 18.3146 14.6244 18.2556 14.8271C18.2386 14.8905 18.2364 14.957 18.2492 15.0214C18.262 15.0858 18.2894 15.1465 18.3293 15.1987C18.4277 15.3356 18.5407 15.4724 18.639 15.6044C18.7045 15.5243 18.7515 15.4308 18.7766 15.3307C18.7851 15.1947 18.7752 15.0582 18.7471 14.9249C18.6342 14.7102 18.5499 14.4818 18.4965 14.2453H18.5014V14.2453ZM18.0049 15.8538C18.0998 15.784 18.173 15.6892 18.2163 15.58C18.2376 15.5356 18.2453 15.4859 18.2383 15.4372C18.2313 15.3885 18.21 15.3429 18.177 15.3062C18.0932 15.2205 18.0338 15.1142 18.0049 14.9982C17.962 15.1082 17.9041 15.2118 17.8329 15.3062C17.7993 15.3426 17.7776 15.3882 17.7706 15.437C17.7636 15.4859 17.7716 15.5358 17.7936 15.58C17.8401 15.6873 17.9127 15.7814 18.0049 15.8538V15.8538ZM18.3539 15.58C18.4867 15.7148 18.6038 15.864 18.7029 16.0249C18.7395 16.08 18.759 16.1446 18.759 16.2107C18.759 16.2767 18.7395 16.3413 18.7029 16.3964C18.5947 16.5474 18.4557 16.674 18.2949 16.768C18.3919 16.6237 18.4401 16.4525 18.4326 16.2791C18.3955 16.1602 18.3495 16.0441 18.2949 15.932C18.2889 15.8098 18.3108 15.6877 18.3588 15.5751L18.3539 15.58V15.58ZM18.8504 15.404C18.7834 15.4926 18.7488 15.6012 18.7521 15.712C18.7587 15.8499 18.7835 15.9863 18.8258 16.1178C18.8999 16.3195 18.992 16.5142 19.101 16.6996C19.1722 16.6052 19.2301 16.5016 19.2731 16.3916C19.1748 16.2547 19.101 16.1178 18.9978 15.9858C18.8946 15.8538 18.8848 15.58 18.8504 15.404ZM18.9634 15.3062C19.0339 15.6707 19.1722 16.019 19.3714 16.3329C19.4273 16.4358 19.5051 16.5255 19.5993 16.5955C19.6935 16.6656 19.8019 16.7144 19.917 16.7387C20.0185 16.7339 20.1159 16.6979 20.1961 16.6358C20.2761 16.5736 20.3349 16.4883 20.3643 16.3916C20.399 16.3023 20.4105 16.2057 20.3976 16.1108C20.3847 16.0159 20.3479 15.9258 20.2905 15.8489C20.269 15.9352 20.2256 16.0147 20.1645 16.0797C20.1034 16.1447 20.0267 16.1932 19.9416 16.2204C19.681 16.196 19.3321 15.888 18.9585 15.3062" fill="white"/>
<path d="M19.2387 15.0715C19.2045 15.1997 19.2045 15.3345 19.2387 15.4626C19.2519 15.5335 19.2796 15.601 19.3202 15.6607C19.3608 15.7204 19.4134 15.7712 19.4746 15.8098C19.5544 15.8559 19.6485 15.8714 19.739 15.8534C19.8295 15.8354 19.9103 15.7851 19.9661 15.712L20.0055 15.6729C19.8328 15.6573 19.6684 15.5922 19.5323 15.4854C19.3962 15.3787 19.2942 15.2349 19.2387 15.0715V15.0715ZM18.0099 16.7778C18.0992 16.7488 18.1746 16.6878 18.2212 16.6066C18.2884 16.482 18.3222 16.3423 18.3195 16.2009C18.282 16.0884 18.2237 15.9839 18.1475 15.8929C18.1094 15.9351 18.0624 15.9685 18.0099 15.9906C17.967 15.954 17.921 15.9213 17.8722 15.8929C17.8011 15.9873 17.7432 16.0909 17.7002 16.2009C17.6855 16.2715 17.6866 16.3446 17.7037 16.4147C17.7206 16.4849 17.753 16.5504 17.7985 16.6066C17.8378 16.7191 17.9116 16.7435 18.0099 16.7778V16.7778ZM18.0099 17.8044C18.0492 17.6333 18.3589 17.3595 18.3589 17.1884C18.3589 17.0173 18.1475 16.9782 18.0099 16.8804C17.8722 16.9782 17.7346 16.9538 17.6609 17.1884C17.6609 17.3253 17.9705 17.6333 18.0099 17.8044ZM18.3834 17.4329C18.2521 17.5964 18.1476 17.7796 18.0738 17.9755C18.0805 18.2292 18.1533 18.4769 18.2851 18.6942C18.4422 18.5642 18.5625 18.3957 18.6341 18.2053C18.6578 18.0637 18.6473 17.9186 18.6038 17.7818C18.5602 17.645 18.4847 17.5204 18.3834 17.4182V17.4329ZM18.7324 17.6529C18.6726 17.4872 18.5789 17.3357 18.4572 17.208C18.421 17.0617 18.4358 16.9076 18.4992 16.7708C18.5626 16.634 18.6708 16.5227 18.8061 16.4551C18.9174 16.6255 19.0097 16.8074 19.0814 16.9978C19.106 17.2813 18.8307 17.4182 18.7324 17.6529V17.6529ZM19.3517 16.4893C19.427 16.5956 19.5201 16.6882 19.627 16.7631V17.1102C19.5732 17.3097 19.5025 17.5043 19.4156 17.692C19.3085 17.5604 19.2284 17.4093 19.1797 17.2471C19.1513 17.1137 19.1382 16.9776 19.1404 16.8413C19.1797 16.8022 19.278 16.592 19.3517 16.4942V16.4893ZM19.9367 17.472C20.0814 17.264 20.1787 17.027 20.2217 16.7778C20.1475 16.8192 20.0651 16.8441 19.9803 16.8508C19.8954 16.8576 19.8101 16.846 19.7302 16.8169C19.693 16.9628 19.693 17.1158 19.7302 17.2618C19.7912 17.348 19.8621 17.4268 19.9416 17.4964L19.9367 17.472V17.472ZM19.9022 17.5698C19.8285 17.4964 19.7646 17.472 19.7302 17.3986C19.6565 17.5355 19.5926 17.6724 19.5189 17.8044C19.5926 17.8044 19.6565 17.8044 19.6909 17.7653C19.7547 17.6934 19.8255 17.6279 19.9022 17.5698ZM19.1011 17.4182C19.2056 17.5892 19.3222 17.7526 19.45 17.9071C19.4129 18.026 19.3669 18.1421 19.3124 18.2542C19.2293 18.4036 19.125 18.5402 19.0028 18.66C18.9188 18.5321 18.848 18.3962 18.7914 18.2542C18.7392 18.1463 18.7237 18.0245 18.7472 17.9071C18.8209 17.736 19.0322 17.56 19.0961 17.3889L19.1011 17.4182V17.4182ZM18.0099 19.584C18.0986 19.453 18.1807 19.3175 18.2556 19.1782C18.289 19.0832 18.289 18.9798 18.2556 18.8849C18.2163 18.7871 18.0443 18.5378 18.0197 18.4791C17.9244 18.6078 17.839 18.7435 17.7641 18.8849C17.7272 18.9843 17.7272 19.0935 17.7641 19.1929C17.828 19.4031 18 19.5009 18 19.5986L18.0099 19.584V19.584ZM18.6833 18.3618C18.5692 18.5113 18.4766 18.6758 18.408 18.8506C18.3839 18.9547 18.3979 19.0638 18.4473 19.1586C18.4867 19.232 18.585 19.3933 18.6587 19.5302C18.7973 19.4257 18.9045 19.2854 18.9683 19.1244C18.9894 19.0576 18.9968 18.9873 18.9901 18.9176C18.9833 18.8479 18.9625 18.7802 18.929 18.7186C18.8897 18.6209 18.757 18.5231 18.6783 18.3715L18.6833 18.3618ZM19.4009 18.3471C19.3041 18.4711 19.2247 18.6076 19.165 18.7529C19.1287 18.8144 19.1095 18.8844 19.1095 18.9558C19.1095 19.0271 19.1287 19.0971 19.165 19.1586C19.2387 19.2955 19.3026 19.3933 19.337 19.4666C19.4368 19.3574 19.5166 19.2317 19.5729 19.0951C19.6098 18.9623 19.6098 18.8221 19.5729 18.6893C19.5009 18.5814 19.443 18.4648 19.4009 18.3422V18.3471V18.3471ZM18.0099 21.5738C18.1471 21.2793 18.2399 20.9663 18.2851 20.6449C18.2487 20.4074 18.1542 20.1824 18.0099 19.9898C17.8491 20.1726 17.7525 20.4026 17.7346 20.6449C17.7689 20.9686 17.8622 21.2833 18.0099 21.5738ZM18.4178 19.3102C18.5718 19.4908 18.6842 19.7027 18.7472 19.9311C18.6934 20.1417 18.6228 20.3477 18.5358 20.5471C18.4363 20.4469 18.3562 20.3292 18.2999 20.2C18.2523 20.1372 18.219 20.0649 18.202 19.9882C18.1851 19.9114 18.1849 19.8319 18.2016 19.7551C18.1925 19.6703 18.2059 19.5847 18.2403 19.5066C18.2749 19.4286 18.3293 19.3608 18.3982 19.3102H18.4178ZM19.0568 19.2711C18.9512 19.4241 18.8915 19.6038 18.8848 19.7893C18.9584 19.9617 19.0507 20.1257 19.16 20.2782C19.2328 20.15 19.2905 20.0138 19.3321 19.8724C19.3352 19.7594 19.3119 19.6472 19.2641 19.5446C19.2164 19.442 19.1454 19.3517 19.0568 19.2809" fill="white"/>
<path d="M18.2556 22.2534C18.3001 22.0165 18.3797 21.7876 18.4915 21.5739C18.5129 21.4728 18.5116 21.3683 18.4879 21.2677C18.4641 21.1672 18.4183 21.0731 18.3539 20.9921C18.2602 21.2969 18.1435 21.5944 18.0049 21.8819C17.8715 21.5921 17.755 21.2951 17.6559 20.9921C17.5915 21.0731 17.5457 21.1672 17.522 21.2677C17.4982 21.3683 17.4969 21.4728 17.5183 21.5739C17.6206 21.7925 17.7029 22.02 17.7641 22.2534C17.7593 22.3544 17.7231 22.4513 17.6606 22.531C17.5981 22.6106 17.5124 22.6691 17.4151 22.6983C17.5008 22.7319 17.5952 22.7367 17.684 22.712C17.7727 22.6873 17.8509 22.6344 17.9066 22.5614C17.9491 22.5235 17.9827 22.4768 18.0049 22.4245C18.0417 22.4672 18.0746 22.513 18.1032 22.5614C18.1584 22.635 18.2366 22.6884 18.3256 22.7132C18.4145 22.738 18.5091 22.7327 18.5948 22.6983C18.5135 22.6496 18.4428 22.5851 18.3871 22.5087C18.3314 22.4322 18.2917 22.3454 18.2704 22.2534H18.2556V22.2534ZM17.1398 20.1023C17.1792 20.2001 17.2775 20.4494 17.3119 20.5081C17.3252 20.5975 17.3095 20.6889 17.2671 20.7689C17.2247 20.8489 17.1577 20.9134 17.0759 20.953C16.9835 20.8975 16.9099 20.8157 16.8646 20.7183C16.8419 20.6742 16.8335 20.6242 16.8405 20.5752C16.8476 20.5262 16.8697 20.4805 16.9039 20.4445C16.9572 20.3136 17.0376 20.1954 17.1398 20.0974V20.1023V20.1023ZM17.6314 20.5863C17.6152 20.7971 17.5688 21.0045 17.4937 21.2023C17.4415 21.3119 17.3655 21.4087 17.2711 21.4856C17.1768 21.5626 17.0665 21.6177 16.9481 21.6472C16.835 21.6281 16.7285 21.5811 16.6385 21.5103C16.6472 21.4469 16.674 21.3874 16.7159 21.3388C16.7577 21.2903 16.8128 21.2548 16.8744 21.2365C17.1872 21.0989 17.451 20.8705 17.6314 20.5814V20.5863V20.5863ZM16.9727 21.0703C16.9299 21.0337 16.8838 21.001 16.8351 20.9725C16.713 21.017 16.5959 21.0743 16.4861 21.1436C16.3436 21.2482 16.2177 21.3735 16.1126 21.5152C16.2343 21.5525 16.3644 21.5525 16.4861 21.5152C16.5129 21.3888 16.5889 21.278 16.6975 21.2072C16.7796 21.1444 16.873 21.0979 16.9727 21.0703V21.0703ZM16.781 20.8845C16.7141 20.7959 16.6794 20.6873 16.6827 20.5765L16.2748 20.8503C16.1433 20.9499 16.0259 21.0667 15.9258 21.1974C16.0595 21.156 16.1957 21.1233 16.3337 21.0996C16.5058 21.0263 16.6434 20.9627 16.781 20.8894V20.8845ZM16.2354 21.2365C15.9991 21.3111 15.7576 21.3683 15.5129 21.4076C15.3447 21.4798 15.1927 21.5845 15.0656 21.7156L15.4392 21.8134C15.5668 21.7216 15.7035 21.6429 15.8471 21.5787C15.9967 21.4893 16.127 21.3714 16.2305 21.2316L16.2354 21.2365V21.2365ZM15.8815 22.3561C15.9553 22.317 15.9553 22.2583 15.9209 22.185C15.8634 22.1036 15.7804 22.0434 15.6849 22.0139C15.4736 21.9405 15.2376 21.877 15.0263 21.8036C14.9895 21.8463 14.9566 21.8921 14.928 21.9405C14.928 21.9796 14.928 22.0139 15.0017 22.0139H15.449C15.4732 22.0343 15.4901 22.0621 15.4972 22.0929C15.5043 22.1238 15.5012 22.156 15.4883 22.185C15.5522 22.1447 15.6245 22.1196 15.6997 22.1116C15.7469 22.1375 15.7879 22.1732 15.8201 22.2162C15.8523 22.2592 15.875 22.3086 15.8865 22.361L15.8815 22.3561V22.3561ZM15.5375 21.8183C15.6592 21.849 15.7764 21.895 15.8865 21.9552C15.9258 21.9161 15.9602 21.9161 15.9848 21.8819C16.0494 21.7671 16.1447 21.6724 16.26 21.6081C16.2 21.6128 16.14 21.5992 16.088 21.569C16.0142 21.6081 15.9504 21.6081 15.8766 21.6423C15.757 21.6818 15.6442 21.7395 15.5424 21.8134L15.5375 21.8183V21.8183ZM16.5254 21.5787C16.4861 21.6179 16.4271 21.6179 16.3534 21.6179C16.17 21.7266 16.0361 21.9019 15.9798 22.1067C15.9574 22.1658 15.9592 22.2312 15.985 22.2889C16.0108 22.3465 16.0584 22.3918 16.1175 22.4147C16.1904 22.4466 16.2726 22.4502 16.3481 22.4249C16.4236 22.3996 16.4869 22.3471 16.5254 22.2779C16.5254 22.2387 16.5648 22.2387 16.5648 22.2045C16.5396 22.2248 16.5106 22.2398 16.4796 22.249C16.4486 22.2581 16.416 22.261 16.3839 22.2576C16.3517 22.2541 16.3205 22.2445 16.2921 22.2291C16.2637 22.2137 16.2386 22.1929 16.2182 22.1679C16.1772 22.1173 16.158 22.0526 16.1649 21.9879C16.1718 21.9233 16.2043 21.864 16.2551 21.8232C16.2944 21.8232 16.2944 21.7841 16.3288 21.7841C16.4398 21.713 16.5706 21.6788 16.7024 21.6863C16.6287 21.6472 16.5648 21.5885 16.5304 21.5885" fill="white"/>
<path d="M14.2939 24.2627C14.3361 24.0949 14.3937 23.9313 14.4659 23.7738C14.6379 23.4267 14.9869 22.5761 15.7684 22.4392C15.8422 22.4392 15.6947 22.229 15.5964 22.2681C15.4967 22.2957 15.4032 22.3422 15.3212 22.405V22.1947C15.3212 22.1556 15.2818 22.1556 15.2474 22.1556C15.151 22.1573 15.0565 22.1825 14.9722 22.229C14.7047 22.5916 14.4865 22.9878 14.3234 23.4072C14.1513 23.813 14.0481 23.9498 13.8318 23.8961C13.6156 23.8423 13.5566 23.6223 13.2125 23.6858C13.0785 23.7216 12.9575 23.7945 12.8635 23.8961C12.8809 23.9351 12.9118 23.9665 12.9507 23.9845C12.9896 24.0024 13.0337 24.0058 13.0749 23.9938C13.2815 23.9994 13.4831 24.0583 13.6598 24.165C13.869 24.2134 14.0807 24.2509 14.2939 24.2774V24.2627V24.2627ZM17.4249 21.5836C17.4485 21.7203 17.5079 21.8484 17.5969 21.9552C17.5969 21.9552 17.361 23.0552 16.491 23.153C16.528 22.988 16.6263 22.843 16.7662 22.7472C17.0415 22.5761 17.4249 22.3023 17.3856 21.8965C17.3065 21.9422 17.2352 21.9999 17.1742 22.0676C17.0366 22.2387 16.8006 22.6836 16.3534 22.6836C16.3942 22.5465 16.4766 22.4253 16.5893 22.3365C16.7925 22.2264 16.9701 22.0748 17.1103 21.8916C17.1731 21.7554 17.283 21.6461 17.42 21.5836H17.4249V21.5836ZM17.012 25.6121L17.533 26.365L17.941 25.6463L17.8034 25.4116L17.5281 25.9298L17.1791 25.4116L17.0071 25.6072" fill="white"/>
<path d="M16.8793 24.9862L15.6751 23.2849L15.8864 23.148L15.2671 22.9133V23.5929L15.4784 23.4218L16.7466 25.2013L16.8842 24.9911L16.8793 24.9862V24.9862ZM12.5489 20.9627C12.721 20.7916 12.9569 20.9236 13.2322 21.1973C13.5074 21.4711 13.6795 21.6862 13.5074 21.8524C13.3354 22.0187 13.0995 21.8916 12.8242 21.6422C12.5489 21.3929 12.4162 21.1533 12.5489 20.9627V20.9627Z" fill="white"/>
<path d="M12.9913 23.9596C12.9132 23.893 12.8513 23.8094 12.8104 23.7154C12.7695 23.6214 12.7507 23.5193 12.7554 23.417C12.7472 23.3179 12.7597 23.2183 12.7921 23.1243C12.8245 23.0303 12.8763 22.9441 12.9439 22.871C13.0116 22.7978 13.0938 22.7395 13.1853 22.6996C13.2768 22.6597 13.3756 22.6391 13.4755 22.6391C13.5754 22.6391 13.6742 22.6597 13.7657 22.6996C13.8572 22.7395 13.9394 22.7978 14.007 22.871C14.0747 22.9441 14.1264 23.0303 14.1588 23.1243C14.1913 23.2183 14.2038 23.3179 14.1956 23.417V23.5539C14.2432 23.4258 14.3007 23.3016 14.3676 23.1823C14.3019 22.9483 14.147 22.7489 13.936 22.6266C13.7249 22.5043 13.4742 22.4686 13.2371 22.5272C12.9851 22.6075 12.7751 22.7831 12.6522 23.0161C12.6928 22.7132 12.8228 22.429 13.0257 22.1996C13.148 22.1059 13.2862 22.0347 13.4337 21.9894C13.3078 21.9898 13.1835 21.9623 13.0696 21.909C12.9557 21.8558 12.8551 21.778 12.7751 21.6814C12.5796 21.5428 12.4458 21.3343 12.4015 21.0996C12.432 21.2838 12.4063 21.4728 12.3278 21.6423C12.1263 22.0218 12.0441 22.4527 12.0918 22.8792C12.1854 23.2871 12.4013 23.6571 12.7112 23.9401C12.7452 23.9768 12.7715 24.02 12.7883 24.067C12.8052 24.114 12.8124 24.164 12.8095 24.2139H13.4681C13.4681 24.2139 13.6057 24.2139 13.6057 24.1161C13.6057 24.0183 13.532 24.0183 13.4681 24.0183C13.3026 24.0357 13.1353 24.019 12.9766 23.9694L12.9913 23.9596V23.9596ZM15.8225 24.1161C15.4999 24.2141 15.1716 24.2925 14.8395 24.3507C14.646 24.3811 14.4503 24.3942 14.2545 24.3899V24.4876C14.2678 24.5002 14.2781 24.5154 14.2849 24.5323C14.2917 24.5491 14.2947 24.5673 14.2939 24.5854C14.501 24.5907 14.7083 24.5776 14.9132 24.5463C15.2819 24.502 15.6426 24.4066 15.9847 24.2627L15.8373 24.1014L15.8225 24.1161V24.1161ZM16.3976 24.1014C16.9266 23.8307 17.3666 23.4151 17.6657 22.9036L17.7395 22.8059C17.7029 22.8243 17.6625 22.8339 17.6215 22.8339C17.5805 22.8339 17.5401 22.8243 17.5035 22.8059L17.4642 22.8792C17.1597 23.3294 16.7584 23.7068 16.2895 23.9841L16.3878 24.1063L16.3976 24.1014V24.1014ZM13.4386 24.3019H13.0651C13.0405 24.2945 13.0147 24.2923 12.9893 24.2953C12.9638 24.2983 12.9393 24.3065 12.9172 24.3193C12.895 24.3321 12.8758 24.3494 12.8607 24.3699C12.8455 24.3904 12.8348 24.4139 12.8291 24.4387C12.7898 24.5121 12.8291 24.5756 12.9028 24.649C12.9766 24.7223 13.0405 24.6881 13.0749 24.649C13.216 24.58 13.3523 24.5016 13.4828 24.4143C13.5074 24.341 13.5467 24.2676 13.4337 24.3019H13.4386V24.3019ZM13.7434 24.473C13.6901 24.4461 13.631 24.4326 13.5713 24.4339C13.4348 24.5077 13.3091 24.5998 13.1978 24.7076C13.1584 24.781 13.1978 24.8054 13.2715 24.8445C13.3106 24.8747 13.3599 24.8888 13.4091 24.8836C13.4739 24.8822 13.5355 24.8559 13.5812 24.8103C13.6205 24.7712 13.7532 24.6001 13.7925 24.5756C13.7838 24.5397 13.767 24.5064 13.7434 24.4779V24.473V24.473ZM13.7827 24.649C13.7434 24.6881 13.6106 24.8592 13.6106 24.8592C13.6106 24.8592 13.6106 24.8983 13.65 24.9325H13.6893C13.8125 24.9325 13.9332 24.8987 14.0383 24.8347C14.1513 24.7712 14.2496 24.6001 14.1366 24.561C14.1082 24.5427 14.0764 24.5305 14.043 24.5251C14.0097 24.5196 13.9756 24.5211 13.9428 24.5293C13.9101 24.5376 13.8794 24.5525 13.8527 24.573C13.826 24.5936 13.8038 24.6195 13.7876 24.649H13.7827V24.649ZM13.8613 24.2041C13.8292 24.1856 13.7928 24.1759 13.7556 24.1759C13.7185 24.1759 13.6821 24.1856 13.65 24.2041C13.6106 24.2774 13.65 24.341 13.7483 24.3752C13.8039 24.4086 13.8661 24.4294 13.9307 24.4362C13.9952 24.4429 14.0605 24.4354 14.1218 24.4143C14.171 24.3752 14.0973 24.2676 13.8613 24.2041ZM18.9437 20.1023C18.9044 20.2001 18.8061 20.4494 18.7717 20.5081C18.7583 20.5975 18.774 20.6889 18.8164 20.7689C18.8589 20.8489 18.9258 20.9134 19.0076 20.953C19.1 20.8975 19.1736 20.8157 19.219 20.7183C19.2417 20.6742 19.2501 20.6242 19.243 20.5752C19.236 20.5262 19.2138 20.4805 19.1796 20.4445C19.0813 20.2979 19.0076 20.1952 18.9437 20.0974V20.1023V20.1023ZM18.4227 20.5863C18.4338 20.8017 18.4925 21.012 18.5947 21.2023C18.647 21.3119 18.723 21.4087 18.8173 21.4856C18.9117 21.5626 19.022 21.6177 19.1403 21.6472C19.2535 21.6281 19.3599 21.5811 19.45 21.5103C19.4442 21.4489 19.4214 21.3904 19.384 21.3411C19.3467 21.292 19.2964 21.254 19.2386 21.2316C18.9145 21.0954 18.6376 20.8677 18.4423 20.5765" fill="white"/>
<path d="M19.042 21.0556C19.0848 21.019 19.1309 20.9863 19.1796 20.9578C19.3017 21.0022 19.4188 21.0596 19.5286 21.1289C19.6711 21.2335 19.797 21.3587 19.9021 21.5005C19.7804 21.5378 19.6503 21.5378 19.5286 21.5005C19.5018 21.374 19.4258 21.2633 19.3172 21.1925C19.2779 21.1289 19.1796 21.0947 19.042 21.0556V21.0556ZM19.2533 20.8845C19.3249 20.7833 19.3596 20.6608 19.3516 20.5374L19.7596 20.8111C19.891 20.9108 20.0084 21.0275 20.1086 21.1582C19.9749 21.1168 19.8386 21.0841 19.7006 21.0605C19.5485 21.018 19.4076 20.9429 19.2877 20.8405L19.2533 20.8845ZM19.7793 21.2218C20.0156 21.2964 20.2571 21.3536 20.5018 21.3929C20.67 21.4651 20.822 21.5698 20.9491 21.7009L20.5755 21.7987C20.4479 21.7069 20.3112 21.6283 20.1676 21.564C20.0155 21.478 19.8845 21.3595 19.7842 21.2169L19.7793 21.2218V21.2218ZM20.1184 22.3414C20.0447 22.3022 20.0447 22.2436 20.0791 22.1702C20.1366 22.0888 20.2195 22.0287 20.315 21.9991C20.5264 21.9258 20.7623 21.8622 20.9737 21.7889C21.0105 21.8315 21.0434 21.8774 21.072 21.9258C21.072 21.9649 21.072 21.9991 20.9983 21.9991H20.551C20.5267 22.0196 20.5098 22.0473 20.5027 22.0782C20.4956 22.109 20.4988 22.1413 20.5116 22.1702C20.4478 22.13 20.3755 22.1049 20.3003 22.0969C20.2083 22.1532 20.1414 22.2425 20.1135 22.3462L20.1184 22.3414V22.3414ZM20.4821 21.8182C20.3604 21.8489 20.2432 21.8949 20.1332 21.9551C20.114 21.954 20.0959 21.9459 20.0823 21.9323C20.0687 21.9189 20.0606 21.9009 20.0594 21.8818C19.9948 21.7671 19.8995 21.6723 19.7842 21.608C19.8442 21.6128 19.9042 21.5991 19.9562 21.5689C20.0299 21.608 20.0938 21.608 20.1676 21.6422C20.2771 21.6872 20.381 21.7446 20.4772 21.8134L20.4821 21.8182V21.8182ZM19.4942 21.5787C19.5335 21.6178 19.5925 21.6178 19.6662 21.6178C19.8496 21.7266 19.9835 21.9018 20.0398 22.1067C20.0622 22.1657 20.0604 22.2312 20.0346 22.2888C20.0089 22.3465 19.9612 22.3918 19.9021 22.4147C19.8292 22.4466 19.747 22.4502 19.6715 22.4249C19.596 22.3995 19.5328 22.3471 19.4942 22.2778C19.4942 22.2387 19.4549 22.2387 19.4549 22.2045C19.5057 22.2453 19.5708 22.2644 19.6357 22.2575C19.7007 22.2507 19.7603 22.2183 19.8014 22.1678C19.8424 22.1172 19.8616 22.0525 19.8547 21.9879C19.8478 21.9233 19.8153 21.864 19.7645 21.8231C19.7252 21.8231 19.7252 21.784 19.6908 21.784C19.5798 21.713 19.449 21.6787 19.3172 21.6862C19.391 21.6471 19.4549 21.5885 19.4893 21.5885L19.4942 21.5787V21.5787ZM21.765 24.2627C21.7212 24.0947 21.6619 23.9311 21.5881 23.7738C21.416 23.4267 21.0671 22.576 20.2855 22.4391C20.2118 22.4391 20.3593 22.2289 20.4576 22.268C20.5573 22.2956 20.6507 22.3421 20.7328 22.4049V22.1947C20.7328 22.1556 20.7722 22.1556 20.8066 22.1556C20.855 22.1476 20.9047 22.1499 20.9522 22.1626C20.9997 22.1752 21.0439 22.1979 21.0818 22.2289C21.3543 22.597 21.5757 22.9999 21.7405 23.4267C21.9125 23.8325 22.0157 23.9694 22.232 23.9156C22.4483 23.8618 22.5416 23.6418 22.8513 23.7054C22.9853 23.7411 23.1063 23.814 23.2003 23.9156C23.1829 23.9546 23.152 23.986 23.1131 24.004C23.0742 24.022 23.0301 24.0253 22.9889 24.0134C22.7823 24.0189 22.5807 24.0778 22.404 24.1845C22.1812 24.2334 21.9699 24.2709 21.7699 24.2969L21.765 24.2627V24.2627ZM18.5947 21.5738C18.571 21.7105 18.5117 21.8386 18.4227 21.9454C18.4227 21.9454 18.6586 23.0454 19.5286 23.1431C19.4916 22.9782 19.3933 22.8332 19.2533 22.7374C18.9781 22.5662 18.5947 22.2925 18.634 21.8867C18.713 21.9323 18.7844 21.9901 18.8454 22.0578C18.983 22.2289 19.2189 22.6738 19.6662 22.6738C19.6254 22.5367 19.543 22.4155 19.4303 22.3267C19.227 22.2166 19.0495 22.065 18.9093 21.8818C18.8428 21.7481 18.734 21.6399 18.5996 21.5738H18.5947V21.5738ZM18.0098 22.6249C18.1488 22.8979 18.3241 23.1511 18.5308 23.3778C18.6684 23.5147 19.0223 23.8667 19.214 24.0329C18.9121 23.9639 18.6308 23.8248 18.3932 23.6271C18.278 23.6948 18.1514 23.7412 18.0196 23.764C17.8864 23.7464 17.7589 23.6996 17.646 23.6271C17.413 23.8318 17.1299 23.9717 16.8252 24.0329C16.9972 23.8618 17.3708 23.5147 17.5084 23.3778C17.7328 23.1715 17.9017 22.9127 17.9999 22.6249" fill="white"/>
<path d="M18.0099 23.8618C18.1165 23.8549 18.2212 23.8302 18.3195 23.7885C18.2557 23.9494 18.1485 24.0898 18.0099 24.1942C17.8794 24.0819 17.7739 23.9437 17.7002 23.7885C17.7985 23.8302 17.9032 23.8549 18.0099 23.8618Z" fill="white"/>
<path d="M18.4571 26.3601L20.5559 23.4561L20.7673 23.6272V22.9476L20.148 23.1823L20.3593 23.3192L18.5063 25.9152L17.5232 24.209L17.4249 24.3801L16.6041 25.6414L16.3927 25.5045V26.1841L17.0513 25.9494L16.84 25.8125L17.5625 24.7125L18.4571 26.3552" fill="white"/>
<path d="M18.8307 25.1964L18.4817 24.6538C18.4424 24.7516 18.3097 24.9276 18.2065 25.172L18.0688 24.8982L18.4768 24.1796L18.5751 24.3507L18.9487 25.0058L18.8258 25.1916L18.8307 25.1964V25.1964ZM19.2731 25.3627L19.4107 25.5973L19.6221 25.4605V26.14L18.9634 25.9053L19.1748 25.7685L19.0765 25.6316L19.2731 25.3578V25.3627V25.3627ZM23.4756 20.9578C23.3036 20.7867 23.0677 20.9187 22.7924 21.1924C22.5172 21.4662 22.3451 21.6813 22.5172 21.8476C22.6892 22.0138 22.9251 21.8867 23.2004 21.6373C23.4756 21.388 23.6083 21.1485 23.4756 20.9578Z" fill="white"/>
<path d="M23.0677 23.9596C23.1458 23.8929 23.2077 23.8094 23.2486 23.7154C23.2895 23.6214 23.3083 23.5193 23.3036 23.4169C23.2887 23.2372 23.2063 23.0696 23.0729 22.9475C22.9395 22.8253 22.7649 22.7575 22.5835 22.7575C22.4022 22.7575 22.2275 22.8253 22.0941 22.9475C21.9607 23.0696 21.8784 23.2372 21.8634 23.4169V23.5538C21.8241 23.4805 21.6914 23.2067 21.6914 23.1823C21.7571 22.9483 21.912 22.7489 22.123 22.6266C22.3341 22.5043 22.5848 22.4686 22.8219 22.5272C23.0739 22.6074 23.284 22.7831 23.4068 23.0161C23.3662 22.7131 23.2362 22.4291 23.0333 22.1996C22.911 22.1059 22.7728 22.0347 22.6253 21.9894C22.7512 21.9897 22.8755 21.9623 22.9894 21.909C23.1033 21.8558 23.2039 21.778 23.284 21.6814C23.4823 21.5425 23.6181 21.3319 23.6624 21.0947C23.6319 21.2789 23.6576 21.4679 23.7362 21.6374C23.9376 22.0169 24.0198 22.4478 23.9721 22.8743C23.8786 23.2822 23.6626 23.6522 23.3528 23.9352C23.3187 23.9719 23.2925 24.0151 23.2756 24.0621C23.2587 24.1091 23.2515 24.1591 23.2545 24.2089H22.5811C22.5811 24.2089 22.4434 24.2089 22.4434 24.1112C22.4434 24.0134 22.5172 24.0134 22.5811 24.0134C22.7465 24.0268 22.9131 24.0103 23.0726 23.9645L23.0677 23.9596V23.9596ZM19.6663 24.1112C19.1452 23.8296 18.7078 23.4165 18.3982 22.9134L18.3245 22.8156C18.361 22.8341 18.4014 22.8437 18.4424 22.8437C18.4834 22.8437 18.5238 22.8341 18.5604 22.8156L18.5997 22.8889C18.9034 23.3369 19.3029 23.7125 19.7696 23.9889L19.6712 24.1112H19.6663V24.1112ZM20.1628 24.1112C20.4854 24.2092 20.8136 24.2876 21.1458 24.3458C21.3392 24.3762 21.535 24.3893 21.7307 24.3849V24.4827C21.7175 24.4953 21.7072 24.5105 21.7004 24.5274C21.6936 24.5442 21.6906 24.5624 21.6914 24.5805C21.4842 24.5858 21.277 24.5727 21.0721 24.5414C20.712 24.4965 20.3597 24.4027 20.0251 24.2627L20.1726 24.1014L20.1628 24.1112ZM22.5467 24.2969H22.9202C23.021 24.2946 23.119 24.3295 23.1955 24.3947C23.1962 24.4385 23.1879 24.4819 23.171 24.5223C23.154 24.5627 23.1289 24.5991 23.0972 24.6294C23.0234 24.6685 22.9596 24.6685 22.9251 24.6294C22.784 24.5605 22.6477 24.482 22.5172 24.3947C22.4926 24.3703 22.4533 24.2578 22.5565 24.2969H22.5467V24.2969ZM22.2468 24.4681C22.3127 24.4371 22.3855 24.4237 22.4582 24.4289C22.5947 24.5028 22.7204 24.5949 22.8318 24.7027C22.8711 24.7761 22.8318 24.8005 22.758 24.8396C22.719 24.8698 22.6696 24.8839 22.6204 24.8787C22.5557 24.8773 22.494 24.851 22.4484 24.8054C22.409 24.7663 22.2763 24.5952 22.237 24.5707C22.2437 24.5385 22.2437 24.5052 22.237 24.4729L22.2468 24.4681V24.4681ZM22.1879 24.6538C22.2272 24.6929 22.3599 24.8641 22.3599 24.8641C22.3599 24.8641 22.3599 24.9032 22.3206 24.9374H22.2812C22.1581 24.9374 22.0373 24.9036 21.9323 24.8396C21.834 24.7663 21.7209 24.6049 21.834 24.5658C21.8618 24.546 21.8937 24.5325 21.9274 24.5262C21.9611 24.52 21.9957 24.5211 22.0289 24.5294C22.0622 24.5378 22.0931 24.5533 22.1197 24.5747C22.1463 24.5962 22.1679 24.6232 22.1829 24.6538H22.1879V24.6538ZM22.1092 24.2089C22.1414 24.1905 22.1778 24.1808 22.2149 24.1808C22.252 24.1808 22.2884 24.1905 22.3206 24.2089C22.3599 24.2823 22.3206 24.3458 22.2223 24.3801C22.1671 24.4144 22.1048 24.4358 22.0401 24.4426C21.9753 24.4494 21.9098 24.4414 21.8487 24.4192C21.7995 24.3801 21.8733 24.2725 22.1092 24.2089Z" fill="white"/>
</svg>
