<svg width="36" height="36" viewBox="0 0 36 36" fill="none" xmlns="http://www.w3.org/2000/svg">
<rect y="0.00244141" width="35.9977" height="35.9977" rx="5" fill="white"/>
<path d="M26.4437 11.2738C26.9593 11.9494 27.3959 12.6833 27.7445 13.4609L17.8577 20.8481L13.7254 18.2232L13.7252 15.0651L17.8575 17.6899L26.4437 11.2738Z" fill="#21A038"/>
<path d="M9.50837 18.001C9.50836 17.8593 9.51176 17.7185 9.51857 17.5785L7.01437 17.4543C7.00586 17.6357 7.00076 17.8189 7.00077 18.0037C6.9998 19.4479 7.28019 20.878 7.82586 22.2121C8.37152 23.5462 9.17171 24.7579 10.1805 25.7778L11.9567 23.9784C11.1801 23.1947 10.5641 22.2631 10.1439 21.2373C9.72374 20.2115 9.50776 19.1116 9.50837 18.001Z" fill="url(#paint0_linear_53838_34100)"/>
<path d="M17.8548 9.54191C17.9945 9.5419 18.1334 9.54708 18.2715 9.55398L18.3966 7.01522C18.2171 7.00659 18.0364 7.00229 17.8546 7.0023C16.4289 7.00063 15.017 7.28438 13.6999 7.83725C12.3828 8.39012 11.1864 9.20122 10.1794 10.224L11.9558 12.0241C12.7292 11.2368 13.6485 10.6122 14.6608 10.1862C15.6732 9.76026 16.7586 9.54129 17.8548 9.54191Z" fill="url(#paint1_linear_53838_34100)"/>
<path d="M17.8559 26.4597C17.7162 26.4597 17.5772 26.4597 17.4383 26.4485L17.3132 28.9864C17.4933 28.9956 17.6743 29.0002 17.8561 29.0002C19.2812 29.0016 20.6924 28.7177 22.0088 28.1646C23.3253 27.6116 24.5209 26.8004 25.5271 25.7776L23.7541 23.9784C22.9806 24.7653 22.0614 25.3895 21.0492 25.8153C20.0371 26.2412 18.9519 26.4602 17.8559 26.4597Z" fill="url(#paint2_linear_53838_34100)"/>
<path d="M22.56 11.0172L24.6703 9.44057C22.7412 7.85772 20.3334 6.99617 17.8513 7.00075L17.8515 9.54123C19.5322 9.539 21.174 10.0537 22.56 11.0172Z" fill="url(#paint3_linear_53838_34100)"/>
<path d="M28.7092 18C28.7105 17.3392 28.6534 16.6794 28.5386 16.0288L26.2024 17.7739C26.2024 17.8491 26.2024 17.9242 26.2025 18.0002C26.2031 19.1822 25.9587 20.3511 25.4852 21.4311C25.0115 22.5112 24.3192 23.4784 23.4532 24.27L25.1384 26.1573C26.2643 25.127 27.164 23.8685 27.7792 22.4633C28.3944 21.058 28.7112 19.5374 28.7092 18Z" fill="#21A038"/>
<path d="M17.856 26.46C16.6897 26.4604 15.5362 26.2127 14.4703 25.7327C13.4045 25.2528 12.45 24.5512 11.6686 23.6737L9.80724 25.3807C10.8237 26.522 12.0655 27.4339 13.4521 28.0575C14.8387 28.6811 16.3392 29.0023 17.8562 29.0004L17.856 26.46Z" fill="url(#paint4_linear_53838_34100)"/>
<path d="M12.2576 11.7312L10.5733 9.84388C9.44703 10.8739 8.54701 12.1324 7.93156 13.5377C7.31612 14.9429 6.99901 16.4636 7.0008 18.0011L9.5084 18.0009C9.5078 16.8191 9.75223 15.6501 10.2258 14.5701C10.6994 13.49 11.3916 12.5228 12.2576 11.7312Z" fill="url(#paint5_linear_53838_34100)"/>
<defs>
<linearGradient id="paint0_linear_53838_34100" x1="10.6877" y1="25.4608" x2="7.88158" y2="17.4585" gradientUnits="userSpaceOnUse">
<stop offset="0.14" stop-color="#F1E813"/>
<stop offset="0.3" stop-color="#E6E418"/>
<stop offset="0.58" stop-color="#C9DA26"/>
<stop offset="0.89" stop-color="#A2CC39"/>
</linearGradient>
<linearGradient id="paint1_linear_53838_34100" x1="10.8954" y1="10.6731" x2="17.9755" y2="8.0103" gradientUnits="userSpaceOnUse">
<stop offset="0.06" stop-color="#0FA7DF"/>
<stop offset="0.54" stop-color="#0098F8"/>
<stop offset="0.92" stop-color="#0290EA"/>
</linearGradient>
<linearGradient id="paint2_linear_53838_34100" x1="17.1478" y1="27.4669" x2="25.1375" y2="25.6854" gradientUnits="userSpaceOnUse">
<stop offset="0.12" stop-color="#A2CC39"/>
<stop offset="0.28" stop-color="#86C239"/>
<stop offset="0.87" stop-color="#219F38"/>
</linearGradient>
<linearGradient id="paint3_linear_53838_34100" x1="17.3298" y1="7.85164" x2="24.1677" y2="9.93329" gradientUnits="userSpaceOnUse">
<stop offset="0.06" stop-color="#0290EA"/>
<stop offset="0.79" stop-color="#0C89CA"/>
</linearGradient>
<linearGradient id="paint4_linear_53838_34100" x1="10.4362" y1="25.0714" x2="17.8862" y2="27.8182" gradientUnits="userSpaceOnUse">
<stop offset="0.13" stop-color="#F1E813"/>
<stop offset="0.3" stop-color="#EAE616"/>
<stop offset="0.53" stop-color="#D8DF1F"/>
<stop offset="0.8" stop-color="#BAD52D"/>
<stop offset="0.98" stop-color="#A2CC39"/>
</linearGradient>
<linearGradient id="paint5_linear_53838_34100" x1="7.93499" y1="18.3085" x2="10.9852" y2="10.4776" gradientUnits="userSpaceOnUse">
<stop offset="0.07" stop-color="#A2CC39"/>
<stop offset="0.26" stop-color="#81C45E"/>
<stop offset="0.92" stop-color="#0FA7DF"/>
</linearGradient>
</defs>
</svg>
