<svg width="36" height="36" viewBox="0 0 36 36" fill="none" xmlns="http://www.w3.org/2000/svg">
<rect y="0.00244141" width="35.9977" height="35.9977" rx="5" fill="white"/>
<path d="M7 7H29V29H7V7Z" fill="white"/>
<path d="M7 7.00269H9.64V26.3202C11.3633 26.3233 13.0865 26.3217 14.8098 26.3217C16.5668 21.0547 18.3221 15.7892 20.076 10.5237C21.8773 10.5207 23.6787 10.5222 25.48 10.5222C25.4815 15.5077 25.48 20.4931 25.4815 25.4801C23.2685 25.4801 21.0555 25.4817 18.844 25.4786C19.1348 24.5987 19.4287 23.7188 19.7225 22.839C20.7495 22.842 21.7748 22.8405 22.8017 22.8405V13.2001C22.5477 13.2001 22.2936 13.2016 22.0411 13.2016C20.2872 18.4687 18.5288 23.7326 16.7764 28.9996H7V7.00269Z" fill="#93130A"/>
<path d="M10.4859 7C11.3766 7.00459 12.2673 7.00306 13.158 7.00306C13.1611 11.3596 13.158 15.7177 13.1596 20.0758C14.6273 15.7253 16.072 11.3673 17.5198 7.01071C21.3459 6.99235 25.1735 7.00765 28.9996 7.00306V29H17.6682C17.9651 28.1079 18.2636 27.2157 18.5605 26.3236C21.1469 26.319 23.7334 26.3236 26.3213 26.3221V9.68095C24.0502 9.67942 21.779 9.68401 19.5078 9.67942C17.7509 14.948 15.974 20.2104 14.2232 25.4805C12.9759 25.479 11.7286 25.4805 10.4813 25.4805C10.4844 19.3198 10.4767 13.1607 10.4859 7Z" fill="#93130A"/>
</svg>
