<svg width="36" height="36" viewBox="0 0 36 36" fill="none" xmlns="http://www.w3.org/2000/svg">
<rect y="0.00244141" width="35.9977" height="35.9977" rx="5" fill="white"/>
<path d="M14.8924 26.4126H8.76926V23.8251H14.8789V26.4126H14.8924ZM16.1252 22.5246H7.55005V29H8.76926V27.6995H16.0981V22.5246H16.1252V22.5246ZM8.76926 10.8879L11.2212 8.30049V17.3633H8.76926V10.8879ZM7.55005 18.6503H12.4269V7H10.6116L7.55005 10.2377V18.6503ZM14.8924 8.30049H17.3444V17.3633H14.8924V8.30049ZM13.6732 18.6503H18.55V7H13.6732V18.6503ZM27.0981 18.6503H28.3173V7H26.4749V7.01355L24.6326 8.95074V7H22.7902L19.7557 10.2377V18.6503H20.9749V10.8879L23.4269 8.30049V18.6503H24.6461V10.8879L27.0981 8.30049V18.6503V18.6503ZM7.55005 21.2377H28.3308V19.9372H7.55005V21.2377ZM23.4404 23.8251H27.0981V26.4126H23.4404V23.8251V23.8251ZM22.2212 26.4126H18.55V23.8251H22.2212V26.4126ZM23.4404 27.6995H28.3308V22.5246H17.3444V27.6995H22.2212V29H23.4404V27.6995Z" fill="#384249"/>
</svg>
