<svg width="36" height="36" viewBox="0 0 36 36" fill="none" xmlns="http://www.w3.org/2000/svg">
<rect y="0.00244141" width="35.9977" height="35.9977" rx="5" fill="white"/>
<path fill-rule="evenodd" clip-rule="evenodd" d="M18.1709 7C18.4639 7 18.7755 7.01214 19.1205 7.03987V9.15061C19.1205 18.4509 19.4751 22.4712 20.8499 28.6708C19.0932 29.1103 17.23 29.1103 15.4764 28.6674C16.8603 22.4227 17.2174 18.4023 17.2174 9.15061V7.03987C17.5659 7.01214 17.8775 7 18.1709 7ZM28.7849 18.7872C28.7849 15.1699 26.8145 11.9895 23.8543 10.1778L23.8942 12.6335C25.6539 14.1462 26.7686 16.3462 26.7686 18.7872C26.7686 19.9019 26.5302 20.9655 26.112 21.9373C24.8382 20.7272 23.9306 19.3038 23.3658 17.623C22.6845 15.5886 22.5255 13.3608 22.5012 10.639L22.5042 9.46874L22.2546 9.36472L22.0257 9.2763C21.5628 9.10294 21.0861 8.95991 20.6011 8.85155L20.6041 10.6355C20.6683 20.0337 22.2966 23.9076 24.719 26.8193C27.1964 24.9495 28.7849 22.0473 28.7849 18.7872ZM15.7338 10.6372L15.7369 8.85329C15.0833 8.99978 14.4448 9.20782 13.8337 9.47047L13.8368 10.6407C13.8094 13.36 13.6534 15.5903 12.9721 17.6248C12.4104 19.3056 11.4998 20.7263 10.226 21.939C9.80771 20.9673 9.56934 19.9037 9.56934 18.7889C9.56934 16.3445 10.681 14.1479 12.4438 12.6353L12.4836 10.1795C9.52036 11.9878 7.55005 15.1682 7.55005 18.7889C7.55005 22.0491 9.14155 24.9512 11.6159 26.821C14.0444 23.9128 15.6697 20.0354 15.7338 10.6372Z" fill="#3B175C"/>
</svg>
