<svg width="36" height="36" viewBox="0 0 36 36" fill="none" xmlns="http://www.w3.org/2000/svg">
<rect y="0.00244141" width="35.9977" height="35.9977" rx="5" fill="white"/>
<path d="M7 7H29V29H7V7Z" fill="#DD002E"/>
<path d="M10.85 12.39V23.61H12.885V14.15H15.36V23.61H17.395V12.39H10.85ZM25.645 19.815C25.59 18.55 25.15 16.075 21.96 16.075L21.905 16.02H20.97V14.205H24.545V12.39H19.045V23.61H22.125C22.62 23.61 23.115 23.5 23.555 23.335C23.995 23.17 24.38 22.84 24.71 22.51C25.04 22.125 25.315 21.74 25.48 21.245C25.645 20.805 25.7 20.31 25.645 19.815V19.815ZM21.685 21.795C21.465 21.795 20.97 21.685 20.97 21.685V17.725H21.355C22.4 17.725 23.555 17.615 23.555 19.705C23.555 21.685 22.29 21.795 21.685 21.795V21.795Z" fill="white"/>
</svg>
