<svg width="36" height="36" viewBox="0 0 36 36" fill="none" xmlns="http://www.w3.org/2000/svg">
<rect y="0.00244141" width="35.9977" height="35.9977" rx="5" fill="white"/>
<path d="M28.7101 17.2884L29.0007 16.3758L28.0555 16.4057C27.6128 16.3894 27.1863 16.2401 26.8278 15.9767L26.9555 15.9766C27.5313 15.9739 28.0581 15.6452 28.3134 15.1291L28.7289 14.241C28.403 14.2437 28.0771 14.2247 27.7538 14.184C27.4442 14.1107 27.1672 13.9423 26.958 13.7033C26.6755 13.4018 26.2844 13.2308 25.8716 13.2281C25.7114 13.2281 25.5511 13.2552 25.3963 13.3041C25.418 13.2308 25.437 13.1575 25.4506 13.0814C25.5157 12.5518 25.3663 12.0168 25.0377 11.5958L24.3206 10.7131L23.8806 11.7452C23.81 11.8919 23.7041 12.0196 23.5683 12.1119C23.4922 11.7426 23.313 11.4058 23.0467 11.1396C22.6013 10.6834 21.9901 10.4281 21.3519 10.4336C21.2405 10.4336 21.1292 10.4417 21.0206 10.458L20.1623 10.6265C20.2356 10.3386 20.3523 10.0642 20.5099 9.81164L20.9824 9.07556L19.7928 9.187L19.4125 8.37221L18.6792 8.77152L18.0001 8.1007L17.3211 8.77161L16.5878 8.39142L16.2076 9.18724L15.018 9.05152L15.4906 9.79025C15.6482 10.0428 15.765 10.3171 15.8383 10.605L15.0235 10.4449L14.9963 10.4449C14.8823 10.4286 14.7682 10.4204 14.6541 10.4204C14.0159 10.415 13.4047 10.6704 12.9594 11.1267C12.6905 11.3956 12.5058 11.7379 12.4325 12.1127C12.3021 12.0231 12.1962 11.9008 12.1256 11.7569L11.6828 10.7167L10.9604 11.6022C10.6372 12.0232 10.4933 12.5555 10.5558 13.0824C10.5694 13.1585 10.5884 13.2318 10.6101 13.3051C10.4553 13.2562 10.295 13.2291 10.1348 13.2292C9.72195 13.2319 9.33085 13.403 9.0484 13.7045C8.842 13.9408 8.56768 14.1093 8.26078 14.1853C7.93486 14.2342 7.6035 14.2533 7.27214 14.2424L7.67689 15.1441C7.93224 15.6601 8.45917 15.9887 9.03498 15.9914L9.16262 15.9914C8.80956 16.2495 8.38858 16.3989 7.9513 16.4179L7.00068 16.3772L7.29136 17.2898C7.50869 18.0041 8.12526 18.5283 8.86675 18.6233C8.79074 19.104 8.48657 19.5196 8.05201 19.7369L7.32413 20.033L7.71529 20.7147C8.03853 21.2172 8.59535 21.5159 9.19016 21.5104C9.34497 21.5104 9.49979 21.4941 9.65188 21.4615C9.68992 21.6272 9.73882 21.7928 9.79315 21.9531C9.92898 22.3116 9.93715 22.7027 9.82039 23.0667L9.46735 23.8082L10.2577 24.0173C10.4343 24.0634 10.619 24.0851 10.8009 24.0851C10.9313 24.0851 11.059 24.0715 11.1866 24.0416C11.279 24.0199 11.3713 23.9927 11.4582 23.9574C11.5587 24.1394 11.6864 24.3078 11.8304 24.4572C12.3356 24.9759 13.0526 25.2393 13.9625 25.2392L14.6116 25.2392L13.2727 25.7961L14.2885 26.2985C14.6987 26.4995 15.1169 26.6814 15.5434 26.8416L15.4211 27.1947L15.7715 27.3549C16.3528 27.583 16.9694 27.7106 17.5941 27.7323L18.4279 27.7323C19.0498 27.7105 19.6636 27.5801 20.2422 27.3519L20.5817 27.1943L20.4621 26.8413C20.894 26.6755 21.3176 26.4881 21.7305 26.2789L22.7272 25.7954L21.3909 25.2523L22.0427 25.2523C22.9526 25.2522 23.6724 24.9806 24.1748 24.4699C24.3215 24.3205 24.4464 24.1521 24.5468 23.9701C24.6338 24.0054 24.7262 24.0326 24.8185 24.0543C24.9462 24.0842 25.0738 24.0977 25.2042 24.0977C25.3862 24.0977 25.5708 24.0733 25.7474 24.0298L26.5404 23.8206L26.1955 23.0928C26.065 22.7234 26.0705 22.3187 26.209 21.952C26.266 21.7863 26.3121 21.6179 26.3501 21.4495C26.5023 21.4821 26.6598 21.4984 26.8146 21.4984C27.4148 21.5038 27.9743 21.1941 28.2921 20.6835L28.6777 20.0098L27.9606 19.7166C27.5261 19.4993 27.2218 19.0838 27.1458 18.6031C27.8872 18.5052 28.5038 17.9837 28.721 17.2667L28.7101 17.2884V17.2884Z" fill="white"/>
<path d="M21.2656 20.1733L14.747 20.1737L14.7472 22.6182C14.7473 23.6231 15.4725 24.2478 16.5453 24.2477C17.4417 24.2476 17.6779 24.2829 18.0093 24.6142C18.2184 24.3888 18.5145 24.2611 18.8241 24.2665L18.8241 24.2285L19.0305 23.5929L18.6801 23.21C18.5388 23.2535 18.3922 23.2698 18.2455 23.2616C18.0255 23.2589 17.8082 23.2372 17.5937 23.1938L17.5258 23.1938C17.4959 23.1938 17.4959 23.1938 17.4877 23.21L17.447 23.278L17.3737 23.4002L17.2324 23.3676L16.605 23.221L16.5181 23.3622L16.5181 23.3785L16.5942 23.4627L16.5616 23.5713C16.5046 23.7044 16.4231 23.824 16.3199 23.9272L16.1624 24.0956L16.0184 23.9163L15.9125 23.7832C15.7984 23.6339 15.7712 23.4384 15.8364 23.2618L15.6599 23.3351L15.5811 23.1613L15.5376 23.0391C15.4262 22.7811 15.5104 22.4823 15.7358 22.3193L16.241 22.0477L16.7217 22.1427C16.7217 22.0966 16.7516 21.9308 16.7652 21.8901L16.738 21.8901L16.4664 21.9933L16.1948 21.8087C16.1405 21.7543 16.1378 21.6647 16.1948 21.6077L16.4528 21.2166L15.7982 20.4018L16.7787 20.7874L16.8466 20.7059L16.9824 20.543L17.1372 20.6896C17.178 20.7303 17.2051 20.7792 17.2187 20.8363C17.4903 20.9449 17.9928 21.2626 18.0336 21.7787L17.8787 21.8412C17.8978 21.8683 17.9223 21.89 17.9521 21.9036L18.6692 21.9742L18.7343 21.9552C18.8565 21.909 18.9869 21.8846 19.1173 21.8818C19.2476 21.8818 19.3753 21.9117 19.4921 21.9687C19.5437 21.9497 19.6007 21.9388 19.6551 21.9361L19.6904 21.9361C20.0734 21.9361 20.2662 22.224 20.4183 22.4521L20.4971 22.5662C20.6302 22.7563 20.8067 23.0333 20.8149 23.0442L20.8937 23.1664L20.7959 23.2804C20.7063 23.4 20.5651 23.4679 20.4157 23.4679C20.3722 23.4706 20.3288 23.4706 20.2853 23.4679C20.2473 23.4598 20.2093 23.4489 20.1712 23.4326C20.1712 23.4706 20.1712 23.5168 20.1495 23.5548L20.0382 24.1958C20.777 24.0464 21.2984 23.3836 21.2684 22.6286L21.2656 20.1733V20.1733ZM14.7389 19.9755L19.8152 19.9751C19.6087 19.7579 19.5381 19.4455 19.6304 19.1603C19.5626 19.1277 19.4973 19.0843 19.4403 19.0354C19.242 19.1821 18.6255 19.6221 18.4789 19.7335L18.4463 19.7552L16.4526 19.4022L16.4119 19.4022C16.3467 19.405 16.2815 19.405 16.2164 19.4023C16.1973 19.4919 16.1186 19.5544 16.029 19.5544L15.9964 19.5544C15.8904 19.5354 15.8171 19.4349 15.8334 19.329L15.8334 19.2855C15.5754 19.1008 15.4531 18.7804 15.521 18.4707L15.521 18.4354L15.5509 18.4137C15.5509 18.4137 15.5889 18.3865 15.6405 18.3566L15.4966 18.3349C15.4422 18.324 15.4069 18.2752 15.4151 18.2209C15.4232 18.1665 15.4721 18.1312 15.5264 18.1393L15.5291 18.1393L15.8741 18.1937L15.9066 16.9796L16.4199 16.4363L16.7404 17.1099L16.4037 18.2778L16.7079 18.3267C16.7622 18.3375 16.7975 18.3864 16.7894 18.4408C16.7813 18.4897 16.7405 18.5222 16.6916 18.5222L16.6753 18.5222L16.4282 18.4815L16.4282 18.5005C16.4553 18.5494 16.4961 18.5875 16.5477 18.6119L18.066 18.6362L18.4543 18.2533C18.1583 18.1501 17.9464 17.8893 17.9111 17.577C17.7209 17.5037 17.5661 17.3624 17.4792 17.1804C17.4059 17.0093 17.3923 16.8165 17.4438 16.6373C17.2048 16.5422 16.9875 16.3983 16.811 16.2136L14.5566 16.2137C14.6653 16.4799 14.7278 16.7624 14.7387 17.0476L14.7389 19.9755V19.9755Z" fill="#FCE527"/>
<path d="M16.8222 21.2411C16.7896 21.2411 16.7598 21.2655 16.757 21.2981L16.757 21.3008C16.7543 21.3361 16.7815 21.3687 16.8168 21.3714L16.8195 21.3714C16.8575 21.3714 16.8847 21.3416 16.8847 21.3063C16.8847 21.2682 16.8575 21.2411 16.8222 21.2411V21.2411Z" fill="#222220"/>
<path d="M16.8194 21.2384C16.8221 21.2384 16.8221 21.2411 16.8221 21.2411C16.8249 21.2411 16.8249 21.2384 16.8276 21.2384L16.8194 21.2384V21.2384ZM21.2577 25.6924L20.8829 25.5484L20.9861 25.16L21.1001 24.7363C20.5868 24.9998 20.049 25.2117 19.495 25.3693C19.2234 25.4453 19.0278 25.4806 19.0278 25.4806L19.0278 25.755C18.6938 25.8094 18.357 25.8392 18.0175 25.842L17.9876 25.842C17.6481 25.8393 17.3113 25.8094 16.9772 25.7551L16.9772 25.4835C16.9772 25.4835 16.7789 25.4455 16.5073 25.3695C15.9532 25.212 15.4154 25.0002 14.9021 24.7367L15.0135 25.1604L15.1194 25.5488L14.7419 25.6928L14.3345 25.8476C14.8941 26.1382 15.478 26.3799 16.081 26.57L15.9371 26.9611C16.5917 27.2109 17.2924 27.3331 17.9931 27.3168L18.0094 27.3168C18.7102 27.333 19.4109 27.2108 20.0654 26.9608L19.9242 26.5698C20.5244 26.3796 21.1083 26.1378 21.6678 25.8472L21.2577 25.6924ZM14.7881 25.872L15.3965 25.6683L15.2145 25.0708C15.6137 25.269 16.0266 25.4347 16.453 25.565L16.1543 26.3799C15.6844 26.2549 15.2254 26.0839 14.7881 25.872ZM18.0176 27.124L18.004 27.1131C17.4065 27.1104 16.8116 27.0289 16.2358 26.8715L16.6024 25.8774C17.0587 25.9914 17.5286 26.0538 18.0012 26.0565L18.0311 26.0565C18.5037 26.0511 18.9735 25.9913 19.4298 25.8772L19.7965 26.8712C19.2181 27.0342 18.6178 27.1185 18.0176 27.124V27.124ZM19.8699 26.3959L19.8699 26.3878L19.5711 25.573C19.9975 25.4426 20.4103 25.2769 20.8095 25.0786L20.6276 25.6761L21.2441 25.8825C20.8041 26.0971 20.3424 26.271 19.8699 26.3959V26.3959ZM18.0002 10.1894C18.614 10.173 19.2169 10.3577 19.7167 10.7135C19.7955 10.3115 19.9448 9.92579 20.1594 9.57541L19.5428 9.64607L19.2223 8.95893L18.6003 9.27946L18.0001 8.68469L17.3998 9.27954L16.7778 8.95909L16.4574 9.64628L15.8408 9.5757C16.0555 9.92606 16.2049 10.3117 16.2836 10.7137C16.7834 10.3579 17.3863 10.1731 18.0002 10.1894ZM16.4302 9.88529L16.6014 9.90429L16.6747 9.74947L16.8892 9.28772L17.2885 9.49412L17.4433 9.57287L17.5683 9.45879L18.0001 9.02148L18.4319 9.45873L18.5569 9.58095L18.7117 9.50217L19.1082 9.29573L19.3255 9.75744L19.3989 9.91225L19.57 9.89323L19.733 9.8742C19.6678 10.0236 19.6108 10.1784 19.5646 10.3359C18.5841 9.83354 17.4189 9.83362 16.4384 10.3362C16.3922 10.1786 16.3352 10.0238 16.27 9.87443L16.4302 9.88529V9.88529ZM26.0564 15.7947L25.983 15.7051C25.4778 15.0615 24.997 14.4504 24.1388 14.1707C24.1741 14.1408 24.2094 14.1136 24.2474 14.0892C24.6547 13.8583 24.9426 13.4618 25.035 13.0027C25.0811 12.5871 24.9643 12.1716 24.709 11.8403L24.4373 11.5008L24.2663 11.9055C24.2663 11.9299 23.9648 12.5791 23.3564 12.5791L23.1771 12.5791C23.2097 12.1527 23.0549 11.7317 22.7533 11.4276C22.3867 11.0528 21.8815 10.8437 21.3573 10.8464C21.2595 10.8464 21.1617 10.8546 21.0667 10.8682L20.6511 10.9497L20.9092 11.2892C21.1102 11.5608 21.2921 12.0306 21.0776 12.2832C20.9744 12.3729 20.8576 12.4435 20.73 12.4924C20.4584 12.6201 20.0673 12.8021 20.0673 13.2584C20.0673 13.5544 20.2982 13.864 20.7138 14.1274C21.9388 14.9042 22.6966 15.7054 23.0253 16.6071C23.5333 17.9813 22.8707 18.7636 22.227 19.1765L21.9391 19.3612L22.1917 19.592C22.4171 19.7849 22.6942 19.9043 22.9902 19.9342L23.2374 19.9342C23.49 19.9342 23.7398 19.8989 23.9816 19.8255C23.9218 19.9314 23.8485 20.0319 23.7698 20.1243C23.4031 20.5507 22.8599 20.7843 22.2977 20.7545L22.056 20.7545L22.037 20.9962C22.0343 21.3358 22.1837 21.6562 22.4417 21.8762C22.5096 21.936 22.5857 21.9849 22.6672 22.0229C22.2652 22.414 22.0371 22.9491 22.029 23.5113C22.029 23.8182 21.9584 24.1224 21.8253 24.3995L21.5538 24.8069L22.0372 24.8069C22.8358 24.8068 23.4468 24.5868 23.8705 24.1495C24.0905 23.9186 24.2535 23.6388 24.3485 23.3346C24.506 23.4677 24.6907 23.5601 24.8917 23.6062C24.9868 23.6279 25.0846 23.6388 25.1824 23.6388C25.329 23.6388 25.4757 23.6197 25.6169 23.5871L25.9265 23.5056L25.7907 23.2177C25.6195 22.7588 25.6195 22.2508 25.7906 21.7918C25.8911 21.493 25.9617 21.1834 25.9997 20.8683C26.2441 20.9933 26.5157 21.0557 26.7901 21.053C27.2409 21.0584 27.6619 20.8356 27.9063 20.4581L28.0557 20.1865L27.7841 20.0724C26.8742 19.6949 26.6731 18.6792 26.6323 18.1305C26.722 18.1495 26.8116 18.1604 26.9039 18.1631L26.98 18.2147C27.9686 18.2146 28.2999 17.2069 28.3135 17.1635L28.4248 16.8077L28.0527 16.8077C27.2705 16.7806 26.5399 16.4112 26.0564 15.7947V15.7947ZM26.9827 17.9404L26.9447 17.9404C26.7464 17.9431 26.5508 17.8888 26.3825 17.7856C26.3825 17.7856 26.2386 19.7493 27.7026 20.3576L27.7026 20.3657C27.5098 20.6591 27.1785 20.8329 26.828 20.8275C26.4316 20.852 26.0486 20.6836 25.7986 20.3767C25.8069 20.8385 25.7308 21.3002 25.576 21.7348C25.3778 22.259 25.3778 22.8402 25.5761 23.3644C25.4539 23.3943 25.3317 23.4106 25.2068 23.4106C25.1307 23.4106 25.0519 23.4025 24.9786 23.3835C24.6174 23.2966 24.3294 23.0304 24.2126 22.68C24.2126 22.68 24.2698 24.565 22.0725 24.5651L22.0562 24.5651C22.2219 24.2501 22.3088 23.8997 22.306 23.5439C22.401 22.1506 23.3462 21.9522 23.3462 21.9522C23.0854 21.9196 22.8382 21.8273 22.621 21.6807C22.4227 21.515 22.3086 21.2706 22.3032 21.0126C22.9387 21.0396 23.5525 20.7761 23.968 20.2927C24.2179 20.0075 24.3835 19.6598 24.4541 19.2877C24.1038 19.5512 23.672 19.6843 23.2347 19.6653L23.012 19.6653C22.7756 19.6409 22.5502 19.5486 22.3682 19.3937C23.2047 18.8505 23.7914 17.9216 23.2724 16.512C22.8541 15.3821 21.8518 14.5375 20.8441 13.902C20.51 13.6956 20.3091 13.4621 20.309 13.261C20.309 12.7885 20.9798 12.7749 21.2569 12.4462C21.5746 12.0768 21.3763 11.4793 21.0993 11.1208C21.178 11.1072 21.2595 11.1017 21.3383 11.1017C21.7919 11.0963 22.2292 11.2782 22.5442 11.6041C22.8648 11.9083 22.987 12.3673 22.8648 12.791L23.0115 12.8209C23.1011 12.8372 23.1907 12.8453 23.2831 12.848L23.3428 12.848C24.1387 12.848 24.4971 12.0141 24.4971 12.0141C24.4971 12.0141 25.3446 13.057 24.098 13.8719C23.8834 14.0105 23.7884 14.1436 23.8264 14.2794L23.8454 14.3689L23.9351 14.3853C24.8395 14.6296 25.2931 15.2543 25.8554 15.9632C26.3878 16.6394 27.1918 17.0468 28.0528 17.0766L28.069 17.0766C28.069 17.0766 27.7975 17.9403 26.9827 17.9404V17.9404Z" fill="#222220"/>
<path d="M25.2387 14.2928C25.5429 14.4666 25.8064 14.7029 26.0129 14.9853C26.1676 15.2243 26.3877 15.4145 26.6484 15.5285C26.7462 15.5611 26.8521 15.5774 26.9553 15.5774C27.3709 15.5774 27.7511 15.341 27.9412 14.9716L28.0987 14.6185L27.7157 14.5968C27.3029 14.5208 26.9308 14.309 26.6565 13.9912C26.4528 13.7712 26.1675 13.6436 25.8661 13.6409C25.6325 13.6436 25.4071 13.7143 25.2115 13.8392L24.8585 14.0864L25.2387 14.2928V14.2928ZM25.8742 13.9044L25.8661 13.9071C26.0969 13.907 26.3142 14.0076 26.4691 14.1787C26.7869 14.5426 27.2215 14.7843 27.6995 14.863C27.5529 15.1373 27.2676 15.3085 26.9553 15.3112C26.8793 15.3112 26.8032 15.2976 26.7299 15.2732C26.2899 15.1238 26.135 14.4584 25.3718 14.0565C25.5211 13.9587 25.695 13.9071 25.8742 13.9044V13.9044ZM25.4182 17.7938L25.4128 17.7883C25.19 15.9957 23.8889 14.7003 22.4412 13.9154C22.3081 13.8421 22.1832 13.7824 22.0637 13.7253C22.6612 13.8475 23.2832 13.7008 23.7638 13.326C23.7638 13.326 22.9246 13.9426 21.2081 13.3832C21.6834 13.6928 22.6069 14.1273 23.4516 14.8334C25.5594 16.6856 24.0521 18.4946 24.0521 18.4946C24.6822 17.897 24.9022 16.9844 24.6196 16.1642C25.0651 16.9056 25.2797 17.7639 25.2336 18.6276C25.1739 20.0508 24.3837 21.2948 23.5689 22.2862C23.3245 22.5986 23.1561 22.9652 23.0855 23.3564C23.224 22.968 23.4332 22.6094 23.7047 22.2998C24.5873 21.2649 25.3342 20.192 25.44 18.6466C25.5324 18.9182 25.9072 19.7086 26.5048 20.0045C26.5048 20.0045 25.7552 19.5537 25.4182 17.7938V17.7938ZM14.1742 24.419C14.0439 24.142 13.9732 23.8378 13.9705 23.5309C13.9623 22.9687 13.7314 22.4336 13.3294 22.0425C13.4108 22.0045 13.4869 21.9556 13.5548 21.8959C13.8128 21.6758 13.9622 21.3553 13.9595 21.0158L13.9431 20.7741L13.6987 20.7741C13.1392 20.8013 12.596 20.5705 12.2293 20.1441C12.1505 20.0517 12.0799 19.9513 12.0174 19.8453C12.2591 19.9186 12.509 19.9539 12.7616 19.9539L13.0088 19.9539C13.3048 19.924 13.5846 19.8045 13.81 19.6116L14.0625 19.3807L13.7746 19.1961C13.1282 18.7833 12.4681 18.0011 12.9759 16.6267C13.3045 15.7331 14.0622 14.9264 15.298 14.1495C15.7135 13.8779 15.9417 13.5764 15.9416 13.2804C15.9416 12.8241 15.5586 12.6421 15.2789 12.5145C15.1512 12.4656 15.0344 12.395 14.9312 12.3054C14.7139 12.0528 14.8959 11.572 15.0995 11.3113L15.3711 10.9718L14.9528 10.8903C14.8578 10.874 14.76 10.8686 14.6622 10.8686C14.1326 10.8523 13.622 11.0561 13.2472 11.4282C12.9403 11.7297 12.7801 12.1534 12.81 12.5825L12.647 12.5825C12.0359 12.5826 11.748 11.9362 11.7371 11.909L11.566 11.5044L11.2944 11.8439C11.0418 12.1753 10.9251 12.5908 10.9713 13.0064C11.0636 13.4654 11.3488 13.8619 11.7563 14.0927C11.7943 14.1172 11.8323 14.1443 11.8649 14.1742C11.0067 14.4459 10.526 15.0652 10.0208 15.7089L9.94749 15.8013C9.46408 16.4179 8.73077 16.7873 7.94855 16.8145L7.57645 16.8145L7.69054 17.1703C7.69055 17.2138 8.03284 18.2214 9.02419 18.2213L9.07308 18.2213C9.16543 18.2186 9.25506 18.2077 9.34469 18.1887C9.30398 18.7319 9.10306 19.7532 8.1905 20.1308L7.9189 20.2449L8.0683 20.5164C8.31277 20.8939 8.73377 21.1167 9.18463 21.1112C9.45896 21.1139 9.72784 21.0514 9.97228 20.9264C10.0103 21.2415 10.081 21.5511 10.1815 21.8499C10.3526 22.3089 10.3527 22.8168 10.1816 23.2758L10.0458 23.5637L10.3554 23.6452C10.4967 23.6778 10.6433 23.6968 10.79 23.6967C10.8878 23.6967 10.9856 23.6859 11.0806 23.6642C11.2816 23.6179 11.4663 23.5256 11.6238 23.3925C11.7189 23.6967 11.8819 23.9765 12.1019 24.2073C12.5283 24.6446 13.1394 24.8618 13.9352 24.8645L14.4187 24.8644L14.1742 24.419V24.419ZM13.9407 24.5711C11.7434 24.5712 11.7976 22.6863 11.7976 22.6863C11.6808 23.0367 11.3929 23.3029 11.0317 23.3898C10.9584 23.4089 10.8796 23.417 10.8036 23.417C10.6786 23.417 10.5564 23.4007 10.4369 23.3708C10.6351 22.8466 10.6351 22.2654 10.4368 21.7412C10.2819 21.3066 10.2086 20.8449 10.2167 20.3832C9.96683 20.6902 9.58388 20.8585 9.18733 20.8342L9.17375 20.8342C8.82067 20.8396 8.4893 20.6631 8.29644 20.3697C9.76035 19.7613 9.61627 17.7976 9.61627 17.7976C9.44788 17.9008 9.25233 17.9551 9.05406 17.9524L9.02417 17.9524C8.20936 17.9525 7.9377 17.0888 7.9377 17.0888L7.954 17.0888C8.81498 17.0616 9.62162 16.6541 10.1539 15.9778C10.7134 15.2689 11.1696 14.6442 12.0741 14.3996L12.1637 14.3833L12.1827 14.2937C12.2071 14.1552 12.1121 14.0221 11.9111 13.8863C10.6643 13.0716 11.5117 12.0286 11.5117 12.0286C11.5117 12.0286 11.8648 12.8624 12.6661 12.8623L12.7041 12.8623C12.7964 12.8596 12.8861 12.8514 12.9757 12.8351L13.1224 12.8053C12.9974 12.3815 13.1223 11.9225 13.4428 11.6183C13.7578 11.2924 14.1951 11.1104 14.6487 11.1158C14.7274 11.1158 14.8089 11.1212 14.8877 11.1348C14.6161 11.496 14.4151 12.0936 14.733 12.4602C15.0046 12.778 15.6782 12.7915 15.6782 13.275C15.6782 13.4759 15.4908 13.7095 15.1568 13.9187C14.1464 14.5543 13.1443 15.3991 12.7288 16.529C12.2101 17.9386 12.7968 18.8756 13.6334 19.4106C13.4514 19.5628 13.226 19.6578 12.9897 19.6823L12.7643 19.6823C12.327 19.7013 11.8952 19.5683 11.5448 19.3048C11.6154 19.677 11.7811 20.0246 12.0283 20.3098C12.4439 20.7905 13.0604 21.0566 13.696 21.0294C13.6906 21.2874 13.5765 21.5319 13.3783 21.6976C13.161 21.8442 12.9138 21.9366 12.6531 21.9692C12.6531 21.9692 13.601 22.162 13.7043 23.5608C13.7016 23.9165 13.7886 24.2669 13.9543 24.582L13.9407 24.5711V24.5711Z" fill="#222220"/>
<path d="M9.04302 15.5759L9.04573 15.5759C9.14894 15.5759 9.25487 15.5596 9.35264 15.5271C9.61337 15.4129 9.83336 15.2228 9.98816 14.9838C10.1918 14.7013 10.4553 14.465 10.7595 14.2911L11.1397 14.0874L10.7866 13.8403C10.591 13.7154 10.3656 13.6447 10.1347 13.6421C9.83326 13.6448 9.54808 13.7725 9.34439 13.9952C9.07281 14.3103 8.698 14.5249 8.28789 14.601L7.90493 14.62L8.05977 14.973C8.24991 15.3425 8.62746 15.5733 9.04302 15.5759V15.5759ZM9.53181 14.1799C9.6839 14.0088 9.90118 13.9082 10.132 13.9082C10.3086 13.911 10.4824 13.9653 10.6318 14.0603C9.86319 14.4705 9.70299 15.1278 9.27386 15.2772C9.20324 15.3016 9.1272 15.3152 9.05115 15.3152C8.73608 15.3153 8.44817 15.1414 8.30149 14.8644C8.7795 14.7856 9.21406 14.5439 9.53181 14.1799ZM10.7734 18.6395C10.7271 17.7758 10.9389 16.9175 11.387 16.1761C11.1046 16.9963 11.3247 17.9089 11.9548 18.5064C11.9548 18.5064 10.4446 16.6976 12.5548 14.8451C13.3995 14.1389 14.3202 13.7043 14.7955 13.3946C13.079 13.9542 12.2397 13.3377 12.2397 13.3377C12.7204 13.7125 13.3397 13.8591 13.9372 13.7369C13.8177 13.7939 13.6928 13.8564 13.5597 13.927C12.1121 14.7148 10.8031 16.0104 10.5886 17.803L10.5886 17.7894C10.2519 19.5494 9.50235 20.0004 9.50235 20.0004C10.0971 19.707 10.4746 18.9139 10.5642 18.6423C10.6648 20.1904 11.42 21.2632 12.3028 22.2952C12.5716 22.6049 12.7835 22.9633 12.9221 23.3517C12.8487 22.9633 12.6803 22.5967 12.4331 22.2871C11.6182 21.2958 10.8305 20.0519 10.7734 18.6395ZM17.5035 15.369C17.5985 15.2766 17.7316 15.2332 17.8647 15.2494L17.8648 15.7627C17.8621 15.8904 17.8295 16.0127 17.767 16.124L18.2803 16.1239C18.2179 16.0126 18.1853 15.8904 18.1826 15.7627L18.1825 15.2494C18.3129 15.2331 18.446 15.2766 18.541 15.3689L18.541 15.0131L17.5035 15.0132L17.5035 15.369V15.369ZM17.2888 12.9055L17.2833 12.9055C17.3621 12.9734 17.4544 13.0277 17.555 13.0603L17.6202 13.0902L17.6201 12.7534L17.0172 12.5009C17.047 12.6693 17.1448 12.8159 17.2888 12.9055ZM18.7202 12.9027L18.7174 12.9054C18.8614 12.8158 18.9591 12.6691 18.989 12.5007L18.3861 12.7534L18.3861 13.0874L18.4485 13.0575C18.5491 13.025 18.6414 12.9706 18.7202 12.9027V12.9027Z" fill="#222220"/>
<path d="M19.8011 11.5418C19.801 11.0339 18.9454 10.5777 18.0029 10.5777C17.0604 10.5778 16.205 11.0342 16.205 11.5421L16.224 11.667L16.6017 13.8398L16.2241 14.0598L15.2383 14.6194C15.2383 14.6194 15.0183 14.7335 14.9151 14.8014C14.543 15.073 14.4642 15.437 14.6788 15.5945C14.7331 15.2251 15.0563 14.9535 15.4311 14.9643C15.7435 14.9725 16.0341 15.13 16.2107 15.388C16.265 15.4532 16.3139 15.5238 16.3573 15.5944C16.4144 15.6868 16.4714 15.7682 16.5285 15.847L14.0134 15.8471C14.2253 16.2111 14.3475 16.6212 14.3747 17.0422L14.3751 22.6291C14.3752 23.9871 15.4155 24.6253 16.5481 24.6252C17.4172 24.6252 17.534 24.5844 18.012 25.0624C18.4901 24.5844 18.6068 24.6251 19.476 24.625C20.6004 24.625 21.6488 23.9812 21.6487 22.6286L21.6483 17.0471C21.6755 16.6261 21.7976 16.216 22.0095 15.852L19.4672 15.8522C19.5242 15.7734 19.5813 15.6919 19.6384 15.5996C19.6845 15.529 19.7334 15.4583 19.785 15.3932C19.9642 15.1351 20.2548 14.9776 20.5672 14.9694C20.942 14.9585 21.2652 15.2301 21.3195 15.5995C21.5368 15.4446 21.4581 15.0563 21.0832 14.8064C20.9827 14.7358 20.7627 14.6245 20.7627 14.6245L19.7849 14.0487L19.4074 13.8288L19.7847 11.6559L19.8011 11.5418V11.5418ZM16.5689 11.7919L17.8944 12.24L17.8946 14.3205L16.9194 13.8045L16.5689 11.7919ZM14.5566 16.2138L16.8408 16.2136C17.0174 16.3983 17.2347 16.5449 17.4737 16.6373C17.4221 16.8166 17.4357 17.0094 17.5091 17.1805C17.596 17.3625 17.7508 17.5037 17.9409 17.577C17.9762 17.8893 18.1881 18.1501 18.4842 18.2532C18.3212 18.419 18.161 18.5738 18.0958 18.6362L16.5775 18.6119C16.5259 18.5875 16.4852 18.5494 16.458 18.5006L16.458 18.4815L16.7052 18.5223L16.7215 18.5223C16.7704 18.5223 16.8111 18.4896 16.8192 18.4408C16.8274 18.3865 16.7921 18.3376 16.7378 18.3267L16.4336 18.2779L16.7703 17.1099L16.4497 16.4364L15.9365 16.9796L15.9039 18.1937L15.559 18.1394C15.5047 18.1285 15.4558 18.1639 15.4449 18.2181L15.4449 18.2209C15.4368 18.2752 15.4721 18.3241 15.5264 18.335L15.6703 18.3567C15.6188 18.3865 15.5835 18.4083 15.5808 18.4137L15.5509 18.4354L15.5509 18.4708C15.483 18.7804 15.608 19.1009 15.8633 19.2856L15.8633 19.329C15.847 19.4349 15.9203 19.5354 16.0263 19.5544L16.0588 19.5544C16.1485 19.5544 16.2272 19.4919 16.2463 19.4023C16.3114 19.405 16.3739 19.405 16.4391 19.4023L16.4798 19.4023L18.4707 19.7634L18.5033 19.7417C18.6608 19.6303 19.2665 19.1984 19.4647 19.0436C19.5218 19.0924 19.587 19.1359 19.6549 19.1685C19.5626 19.4537 19.6332 19.766 19.8396 19.9833L14.7389 19.9836L14.7387 17.0476C14.7278 16.7624 14.6653 16.4799 14.5566 16.2138V16.2138ZM19.2936 18.8996C19.0872 19.0518 18.5793 19.4212 18.3946 19.5515L16.5885 19.2366L16.5885 19.1877C16.6183 19.0655 16.6346 18.9405 16.6373 18.8156L18.1583 18.84L18.1882 18.8101C18.2126 18.7856 18.6933 18.3212 18.9378 18.0522C19.0029 18.1337 19.079 18.2016 19.1659 18.256C19.1225 18.4787 19.1686 18.7095 19.2936 18.8996V18.8996ZM16.2761 18.5739L16.2761 18.582C16.3168 18.6581 16.3766 18.7233 16.4499 18.7668C16.4472 18.8781 16.4363 18.9868 16.4174 19.0954C16.4174 19.1198 16.4174 19.1443 16.3983 19.1687L16.3983 19.2068C16.2734 19.2068 16.1512 19.1877 16.0316 19.1497C15.8144 19.0329 15.6921 18.7939 15.7274 18.5495C15.8252 18.4816 15.9366 18.4381 16.0533 18.4218C16.1539 18.4191 16.2435 18.4788 16.2761 18.5739V18.5739ZM16.0886 18.2127L16.1185 17.0638L16.39 16.7922L16.5557 17.1371L16.2326 18.2562L16.0886 18.2127V18.2127ZM19.2804 24.2638L19.0196 24.2638L19.2233 23.5984C19.2559 23.506 19.0875 23.3865 19.0169 23.2807C19.1825 23.3811 19.3537 23.4707 19.5302 23.5522C19.5302 23.5739 19.2804 24.2638 19.2804 24.2638ZM19.9784 23.5196L19.9566 23.5006L19.8154 24.2339C19.7258 24.2339 19.6307 24.253 19.5438 24.2584L19.6932 23.5522C19.7366 23.343 19.1744 23.2806 18.8973 22.8651C18.7154 23.0172 18.4818 23.0878 18.2482 23.0634C18.0418 23.0607 17.8381 23.039 17.6371 22.9983C17.6018 22.9955 17.5665 22.9955 17.5312 22.9983C17.447 22.9928 17.3655 23.0363 17.322 23.1096L17.2813 23.1775L16.5072 22.9902L16.3225 23.3107C16.2927 23.3542 16.2981 23.4139 16.3361 23.4519L16.3877 23.509C16.3361 23.6095 16.271 23.7018 16.1922 23.7806L16.0781 23.6393C15.9912 23.4981 15.9994 23.3162 16.0971 23.1831L16.4013 22.6697L17.0504 22.7674L16.9499 22.5366C16.8141 22.2324 17.0205 21.844 17.0422 21.6213C17.0422 21.6891 16.9716 21.7027 16.901 21.7027L16.7135 21.7027C16.7 21.7001 16.6837 21.7001 16.6701 21.7028L16.4935 21.8087L16.355 21.681C16.3333 21.6403 16.3415 21.5915 16.3741 21.5615L16.6945 21.2003L16.3142 20.7576L16.8575 21.0292L17.0204 20.8336C17.0639 20.8771 17.0449 20.9911 17.0449 20.9911C17.4387 21.0889 17.713 21.4474 17.7022 21.8548L17.7022 21.9336C17.7565 22.0205 17.8435 22.0802 17.9412 22.1047L18.6773 22.1779C18.824 22.1318 18.9733 22.1018 19.1254 22.0829C19.2558 22.0828 19.3862 22.1236 19.4948 22.1942C19.5465 22.1589 19.6089 22.1371 19.6714 22.1344L19.6958 22.1344C20.0245 22.1344 20.163 22.4331 20.3395 22.6776C20.4726 22.865 20.6519 23.1474 20.6519 23.1474C20.6003 23.2235 20.5161 23.2697 20.4238 23.2697C20.3912 23.2724 20.3613 23.2724 20.3287 23.2697C19.9756 23.2045 19.924 22.4766 19.723 22.4196L19.6904 22.4196C19.6523 22.4196 19.6171 22.4413 19.5981 22.4766C19.6904 22.7238 19.6361 22.8243 19.7366 23.0199C19.81 23.1366 19.9023 23.2425 20.0083 23.3322C20.0083 23.3322 19.9947 23.4408 19.9784 23.5196V23.5196ZM16.0211 22.8082L16.0156 22.8082L16.0482 22.8924C16.0265 22.9658 15.7766 23.0717 15.7766 23.0717L15.7223 22.9522C15.6517 22.7811 15.7032 22.5856 15.8526 22.4742L16.2627 22.2243L16.7 22.3166C16.6973 22.4035 16.7245 22.4877 16.7761 22.5583L16.317 22.4715L16.0455 22.6616C16.002 22.6996 15.9939 22.7593 16.0211 22.8082V22.8082ZM21.2739 22.6313C21.3038 23.3864 20.7796 24.0492 20.0382 24.1959L20.163 23.5386C20.163 23.5006 20.1766 23.4544 20.1821 23.4164C20.2201 23.4326 20.2581 23.4435 20.2961 23.4517C20.3396 23.4544 20.383 23.4544 20.4265 23.4517C20.5759 23.4517 20.7172 23.3837 20.8067 23.2642L20.9045 23.1501L20.823 23.0388C20.823 23.0388 20.641 22.7509 20.5052 22.5608L20.4292 22.4467C20.277 22.2186 20.0842 21.9307 19.7012 21.9307L19.6659 21.9307C19.6116 21.9334 19.5546 21.9443 19.5029 21.9633C19.3862 21.9063 19.2585 21.8764 19.1282 21.8764C18.9978 21.8791 18.8674 21.9036 18.7452 21.9498L18.68 21.9688L17.9629 21.8982C17.9331 21.8847 17.9086 21.8629 17.8896 21.8358L18.0444 21.7733C18.0009 21.2545 17.5011 20.9368 17.2295 20.8309C17.216 20.7738 17.1888 20.7249 17.1481 20.6842L16.9932 20.5376L16.8575 20.7005L16.7895 20.782L15.7846 20.3692L16.4392 21.184L16.1812 21.5751C16.1269 21.6295 16.1242 21.7191 16.1812 21.7762L16.4529 21.9608L16.7244 21.8576L16.7516 21.8576C16.7516 21.8983 16.7218 22.064 16.7082 22.1102L16.2356 22.0287L15.7304 22.3003C15.4968 22.4688 15.4153 22.7784 15.5376 23.0392L15.5947 23.1614L15.6734 23.3352L15.85 23.2618C15.7848 23.4384 15.8119 23.6339 15.926 23.7833L16.032 23.9191L16.1732 24.0984L16.3307 23.9299C16.434 23.8268 16.5154 23.7072 16.5724 23.5741L16.605 23.4655L16.529 23.3813L16.529 23.365L16.6159 23.2238L17.2433 23.3704L17.3845 23.403L17.4606 23.278L17.5013 23.2101C17.5013 23.1966 17.5013 23.1938 17.5394 23.1938L17.6072 23.1938C17.8218 23.2372 18.0391 23.259 18.2564 23.2617C18.403 23.2698 18.5497 23.2535 18.6909 23.2101L19.0386 23.6066L18.8323 24.2421L18.8323 24.2801C18.5226 24.2748 18.2266 24.4024 18.0175 24.6278C17.6834 24.2965 17.4471 24.2612 16.5535 24.2613C15.4807 24.2614 14.7554 23.634 14.7553 22.6318L14.7552 20.1874L21.2737 20.1869L21.2739 22.6313V22.6313ZM21.45 16.2133C21.3386 16.4768 21.2789 16.7593 21.2681 17.0471L21.2682 18.8778C21.0319 18.8262 20.8553 18.6252 20.839 18.3835L20.839 18.2993L20.7575 18.2993C20.6163 18.2884 20.4859 18.2233 20.3881 18.1228C20.2686 17.9842 20.2034 17.8104 20.2007 17.6284C20.0839 17.8186 20.0948 18.063 20.2306 18.2423C20.3366 18.3753 20.4914 18.465 20.6597 18.4867C20.7087 18.8017 20.9613 19.0462 21.2763 19.0869L21.2764 19.9832L20.1357 19.9833C19.8369 19.8312 19.7119 19.4754 19.845 19.1685L19.8885 19.0707L19.788 19.0327C19.462 18.9186 19.2827 18.5683 19.3859 18.2369L19.4076 18.1554L19.3316 18.1201C19.0464 17.9545 18.8888 17.6313 18.935 17.3053C18.7856 17.4574 18.7476 17.6883 18.8427 17.8784C18.7884 17.9409 18.7178 18.0142 18.639 18.0957C18.3538 18.036 18.1473 17.7889 18.1365 17.4982L18.1365 17.4303L18.074 17.4059C17.9083 17.357 17.7725 17.2429 17.6938 17.0908C17.6421 16.9659 17.6313 16.8247 17.6666 16.6943C17.7209 16.7052 17.7752 16.7133 17.8295 16.7187C17.8838 16.7214 17.9409 16.7214 17.9952 16.7187C18.4352 16.7187 18.8535 16.5285 19.1468 16.2026L21.45 16.2133V16.2133ZM19.6899 14.3611L20.1353 14.6327L20.2467 14.6978C20.0158 14.7603 19.8067 14.8853 19.641 15.0591L19.622 15.0754C19.584 15.1161 19.5487 15.1569 19.5134 15.2004L19.4916 15.2275C19.4563 15.271 19.4237 15.3171 19.3939 15.366L19.3776 15.3905C19.3395 15.4448 19.3042 15.5046 19.269 15.5643C19.0218 16.056 18.5411 16.3846 17.9952 16.439C17.4492 16.3847 16.9685 16.0561 16.7213 15.5645C16.686 15.5047 16.6507 15.4477 16.6154 15.3907L16.5937 15.3608L16.5067 15.2196L16.4823 15.1897C16.447 15.1462 16.4116 15.1055 16.3763 15.0675L16.3573 15.0485C16.1916 14.8746 15.9825 14.7497 15.7516 14.6873L15.8657 14.6221L16.3138 14.3504L16.7728 14.0788L17.9978 14.7442L19.2227 14.1004L19.6899 14.3611V14.3611ZM19.0869 13.8179L18.1118 14.3313L18.1117 12.2427L19.4344 11.7944L19.0869 13.8179V13.8179ZM18.0003 12.0227L16.5499 11.4415C16.6721 11.1482 17.2425 10.8983 18.0003 10.8982C18.758 10.8982 19.3284 11.148 19.4506 11.4413L18.0003 12.0227Z" fill="#222220"/>
</svg>
