<svg width="36" height="36" viewBox="0 0 36 36" fill="none" xmlns="http://www.w3.org/2000/svg">
<rect y="0.00244141" width="35.9977" height="35.9977" rx="5" fill="white"/>
<path d="M16.7756 9.57774C16.7756 9.57774 18.0175 10.3836 17.1961 11.3958C16.3747 12.408 15.7868 12.6494 15.7206 13.3034C15.7206 13.3034 15.1561 12.7117 15.8919 11.8786C16.6277 11.0454 17.3285 10.5977 16.7756 9.57774ZM17.6555 11.3218C17.6555 11.3218 17.5932 11.972 16.5732 12.5871C15.5532 13.2022 16.032 13.4358 16.0204 13.3852C16.0087 13.3345 17.4453 13.2411 17.6555 11.3218ZM15.5181 9.21561C15.5181 9.21561 16.0281 9.12607 16.0593 9.37522C16.1332 9.99034 15.4442 10.4964 14.6694 11.1583C13.739 11.9564 13.8558 12.2172 13.8441 12.2639C13.8324 12.3106 13.2173 11.6138 13.9687 10.9013C13.9726 10.9013 15.2729 9.9553 15.5181 9.21561V9.21561ZM15.3586 9.21566L13.6261 10.8975C13.6261 10.8975 13.4898 9.55825 15.3586 9.21566V9.21566ZM28.7314 26.5517H26.3137C26.2431 26.5461 26.1768 26.5149 26.1274 26.4641C26.0779 26.4132 26.0487 26.3461 26.0451 26.2753V19.3378C26.0451 17.3017 25.7259 16.6126 24.5268 16.6126C23.7287 16.6126 22.5569 17.2939 21.5719 18.1426V26.2753C21.5684 26.3461 21.5391 26.4132 21.4897 26.4641C21.4403 26.5149 21.374 26.5461 21.3033 26.5517H18.8701C18.7994 26.5461 18.7331 26.5149 18.6837 26.4641C18.6343 26.4132 18.6051 26.3461 18.6015 26.2753V14.5959C18.6051 14.5251 18.6343 14.458 18.6837 14.4071C18.7331 14.3563 18.7994 14.3251 18.8701 14.3195H21.1048C21.1755 14.3251 21.2418 14.3563 21.2911 14.4071C21.3406 14.458 21.3699 14.5251 21.3734 14.5959V15.7639C22.588 14.705 24.0051 13.9535 25.3794 13.9535C27.8048 13.9535 29 15.3668 29 18.4034V26.2753C28.9957 26.3458 28.9662 26.4125 28.9169 26.4632C28.8676 26.5139 28.8018 26.5453 28.7314 26.5517ZM12.719 9.41415C12.2158 9.30747 11.7033 9.25139 11.189 9.24675C7.73191 9.24675 7 11.1933 7 13.5992V26.2752C7.00436 26.3458 7.03385 26.4125 7.08313 26.4632C7.13241 26.5139 7.19821 26.5452 7.26862 26.5516H9.68236C9.75346 26.5461 9.8202 26.5152 9.87027 26.4643C9.92035 26.4136 9.95039 26.3464 9.95488 26.2752V16.5697H11.7029C11.774 16.5642 11.8407 16.5332 11.8908 16.4824C11.9409 16.4316 11.9709 16.3645 11.9754 16.2933V14.5881C11.9717 14.5166 11.942 14.449 11.8917 14.3981C11.8415 14.3471 11.7743 14.3164 11.7029 14.3117H9.95876V13.6031C9.95876 12.1199 10.3948 11.6566 11.5355 11.6566C11.726 11.6581 11.9161 11.675 12.1039 11.7072C12.1747 11.7091 12.2444 11.6897 12.3041 11.6515C12.3638 11.6133 12.4107 11.5581 12.4387 11.4931C12.4659 11.3802 12.7696 10.259 12.9137 9.72949C12.9279 9.66199 12.9156 9.59159 12.8794 9.53288C12.8431 9.47418 12.7857 9.43166 12.719 9.41415V9.41415ZM17.6281 26.2753V14.5959C17.6231 14.5219 17.5942 14.4515 17.5458 14.3954C17.4974 14.3392 17.432 14.3003 17.3595 14.2844C15.9368 14.1204 14.4999 14.1204 13.0771 14.2844C13.005 14.2995 12.9397 14.3377 12.8913 14.3932C12.8428 14.4487 12.8137 14.5185 12.8085 14.592V16.2972C12.8105 16.3667 12.8398 16.4327 12.8901 16.4807C12.9404 16.5288 13.0075 16.5552 13.0771 16.5541C13.6105 16.5152 14.1477 16.4919 14.685 16.484V26.2753C14.6894 26.3464 14.7195 26.4136 14.7696 26.4644C14.8196 26.5152 14.8864 26.5461 14.9575 26.5516H17.3751C17.4427 26.5418 17.5048 26.509 17.551 26.4586C17.5971 26.4082 17.6244 26.3435 17.6281 26.2753Z" fill="#015289"/>
</svg>
