<svg width="36" height="36" viewBox="0 0 36 36" fill="none" xmlns="http://www.w3.org/2000/svg">
<rect y="0.00244141" width="35.9977" height="35.9977" rx="5" fill="white"/>
<path d="M7 14.226C7 12.9102 7.53062 12.1038 8.62869 11.4927L13.1489 8.97719C15.5174 7.65906 16.7017 7 18 7C19.2983 7 20.4826 7.65906 22.8511 8.97719L27.3713 11.4927C28.4694 12.1038 29 12.9102 29 14.226C29 14.5828 29 14.7612 28.961 14.9078C28.7563 15.6784 28.0581 15.8 27.3838 15.8H8.61621C7.9419 15.8 7.24367 15.6784 7.03896 14.9078C7 14.7612 7 14.5828 7 14.226Z" stroke="#3B526B" stroke-width="1.5"/>
<path d="M17.9955 12.4999H18.0054" stroke="#3B526B" stroke-width="2" stroke-linecap="round" stroke-linejoin="round"/>
<path d="M9.20007 15.8V25.15M13.6001 15.8V25.15" stroke="#3B526B" stroke-width="1.5"/>
<path d="M22.4 15.7999V25.1499M26.8 15.7999V25.1499" stroke="#3B526B" stroke-width="1.5"/>
<path d="M25.7 25.15H10.3C8.47746 25.15 7 26.6275 7 28.45C7 28.7538 7.24624 29 7.55 29H28.45C28.7538 29 29 28.7538 29 28.45C29 26.6275 27.5225 25.15 25.7 25.15Z" stroke="#3B526B" stroke-width="1.5"/>
</svg>
